<svg width="240" height="82" viewBox="0 0 240 82" fill="none" xmlns="http://www.w3.org/2000/svg">
<path d="M1.60193 66.5529C1.77092 66.4402 2.05258 66.2853 2.23566 66.2219C2.52437 66.1163 2.87644 66.1022 4.83398 66.0952C6.91123 66.0952 7.13656 66.1093 7.47455 66.229C7.69284 66.3135 8.00267 66.5106 8.21391 66.7078C8.43924 66.919 8.65049 67.2007 8.77724 67.4683C8.96031 67.8696 8.9744 67.9471 9.00961 70.2497H6.26341V69.5103C6.26341 68.9963 6.22821 68.7076 6.15779 68.5597C6.10146 68.44 5.94654 68.2992 5.80571 68.2428C5.63672 68.1724 5.31985 68.1372 4.8199 68.1372C4.31995 68.1372 4.00309 68.1724 3.83409 68.2428C3.69326 68.2992 3.53835 68.44 3.48201 68.5597C3.39047 68.7428 3.37639 69.461 3.37639 73.7C3.37639 77.939 3.39047 78.6573 3.48201 78.8403C3.53835 78.96 3.65805 79.1009 3.74255 79.1572C3.8693 79.2417 4.12279 79.2628 5.78459 79.2628L6.26341 78.7699V76.5166H9.00961V77.8404C9.00961 78.784 8.98144 79.2699 8.90398 79.5656C8.84765 79.7839 8.7209 80.0867 8.62936 80.2346C8.53782 80.3754 8.35474 80.5937 8.228 80.7204C8.09421 80.8472 7.79846 81.0373 7.1436 81.3401H2.4962L2.0385 81.1147C1.77797 80.988 1.4611 80.7627 1.30618 80.5866C1.15127 80.4247 0.947066 80.1078 0.665405 79.5093V73.7704C0.665405 69.4822 0.68653 67.9612 0.749904 67.7499C0.799194 67.595 0.940024 67.3134 1.06677 67.1162C1.19352 66.9261 1.43293 66.6726 1.60193 66.5529Z" fill="#75EF42"/>
<path d="M15.5934 66.3557C15.7483 66.2783 15.9525 66.1867 16.0511 66.1586C16.1497 66.1304 17.3538 66.1093 21.2266 66.1304L21.5717 66.3064C21.7618 66.405 22.0435 66.6092 22.1984 66.7641C22.3533 66.919 22.5575 67.2077 22.8462 67.7499L22.8814 80.9528H19.924V76.3758H17.3186V80.9528H14.3612L14.3752 74.3901L14.3754 74.3388C14.3964 67.9324 14.3968 67.8125 14.5442 67.5035C14.6217 67.3275 14.8259 67.0317 15.0019 66.8416C15.1709 66.6585 15.4385 66.4332 15.5934 66.3557Z" fill="#75EF42"/>
<path d="M29.7539 66.6022C29.944 66.4402 30.2257 66.2571 30.3806 66.2008C30.5919 66.1304 31.12 66.1022 32.4367 66.1022C33.9647 66.0952 34.2746 66.1163 34.6267 66.2219C34.8449 66.2923 35.1688 66.4473 35.3449 66.5599C35.5209 66.6796 35.7744 66.919 35.9152 67.088C36.0561 67.257 36.2392 67.5246 36.3166 67.6795C36.3941 67.8344 36.5067 68.1372 36.5701 68.3485C36.6335 68.5597 36.7109 69.0597 36.7884 70.1793H34.007V69.5455C34.007 68.947 34 68.9048 33.8169 68.7358C33.6268 68.5597 33.5845 68.5527 32.7536 68.5597C31.9227 68.5597 31.8805 68.5668 31.7185 68.7358C31.5425 68.9118 31.5425 68.9188 31.5425 70.3412C31.5425 71.489 31.5636 71.7918 31.6481 71.9256C31.7044 72.0101 31.8241 72.1227 31.9086 72.165C32.0166 72.226 32.587 72.2682 33.6197 72.2917C35.0421 72.3269 35.197 72.341 35.5209 72.4889C35.711 72.5804 36.0138 72.7705 36.1828 72.9114C36.3589 73.0522 36.5983 73.3339 36.725 73.524C36.8518 73.7211 37.0067 74.0521 37.0701 74.2633C37.1616 74.5873 37.1757 75.0097 37.1405 79.1572L36.9151 79.6149C36.7954 79.8684 36.556 80.2134 36.387 80.3824C36.2251 80.5514 35.88 80.7908 35.1688 81.1288L32.9508 81.15C31.5918 81.164 30.6271 81.15 30.451 81.1007C30.2961 81.0655 30.0145 80.9246 29.8243 80.7979C29.592 80.643 29.4018 80.4388 29.0427 79.7909L29.0075 76.7983H31.6129L31.627 77.7348C31.6481 78.4883 31.6692 78.7065 31.7678 78.8615C31.8382 78.9671 31.979 79.1079 32.0847 79.1783C32.2325 79.2699 32.4297 79.298 32.993 79.298C33.6197 79.298 33.7394 79.2769 33.9155 79.1502C34.0211 79.0657 34.176 78.8967 34.2535 78.7629C34.3802 78.5446 34.3943 78.3967 34.3943 77.1152C34.3943 75.8336 34.3802 75.6857 34.2535 75.4674C34.176 75.3337 34.0211 75.1647 33.9155 75.0802C33.7324 74.9393 33.6056 74.9323 32.0847 74.8971L32.0638 74.8966C30.4789 74.8619 30.4426 74.8611 30.1342 74.6788C29.9581 74.5732 29.6905 74.3549 29.5356 74.1788C29.3737 73.9958 29.1976 73.7071 29.1272 73.4817C29.0146 73.1367 29.0075 72.8339 29.0427 67.6091L29.2258 67.257C29.3244 67.0669 29.5638 66.7712 29.7539 66.6022Z" fill="#75EF42"/>
<path d="M42.6681 80.9528V73.524V66.0952H45.6255V72.4678L48.2309 72.503V66.0952H51.1883V80.9528H48.2309L48.1957 75.4252L46.9141 75.4111C46.2029 75.397 45.6255 75.4111 45.6255 75.4463V80.9528H42.6681Z" fill="#75EF42"/>
<path d="M115.829 1.10198C116.393 1.02452 117.153 0.92594 117.519 0.890732C117.886 0.855525 119.153 0.841442 120.336 0.855525C121.991 0.876649 122.73 0.911857 123.54 1.02452C124.124 1.10198 124.927 1.23577 125.336 1.31322C125.744 1.39772 126.455 1.55968 126.92 1.67234C127.385 1.79205 128.244 2.04554 128.821 2.23566C129.406 2.43283 130.222 2.73561 130.652 2.91165C131.081 3.08064 131.983 3.51018 132.659 3.84817C133.335 4.1932 134.285 4.72132 134.771 5.0241C135.257 5.32689 135.94 5.77755 136.285 6.03104C136.63 6.28454 137.222 6.72815 137.588 7.0239C137.954 7.3126 138.637 7.90409 139.102 8.32658C139.559 8.74907 140.313 9.50955 140.771 10.0095C141.228 10.5094 141.869 11.277 142.2 11.6995C142.531 12.122 143.08 12.8895 143.418 13.3965C143.756 13.9035 144.235 14.6851 144.946 15.9525L180.611 15.9596L177.337 20.1493L162.036 20.1634C153.628 20.1775 146.742 20.1915 146.742 20.1986C146.742 20.2127 146.805 20.4098 146.883 20.6422C146.967 20.8746 147.136 21.4801 147.263 21.9801C147.397 22.48 147.516 22.98 147.587 23.2828H161.212C168.704 23.2828 174.83 23.3109 174.823 23.3391C174.809 23.3743 174.091 24.3038 171.633 27.4443L148.15 27.4373V30.6059L169.141 30.6411L165.93 34.7604H147.587L147.523 35.021C147.488 35.1688 147.418 35.4646 147.375 35.6758C147.326 35.8871 147.185 36.4152 147.052 36.8377C146.925 37.2602 146.805 37.6686 146.784 37.732C146.742 37.8517 147.171 37.8587 155.086 37.8587C160.628 37.8587 163.423 37.8798 163.416 37.9291C163.402 37.9714 162.684 38.9149 160.226 42.0766L144.946 42.0836L144.672 42.5977C144.524 42.8723 144.15 43.499 143.855 43.9848C143.552 44.4707 142.975 45.3086 142.566 45.8508C142.165 46.393 141.58 47.1183 141.278 47.4704C140.975 47.8225 140.454 48.3858 140.123 48.7308C139.792 49.0688 139.179 49.6603 138.75 50.0405C138.32 50.4137 137.658 50.97 137.271 51.2798C136.884 51.5826 136.236 52.0615 135.827 52.3361C135.419 52.6107 134.757 53.0332 134.349 53.2796C133.94 53.5261 133.088 53.9838 132.447 54.3077C131.807 54.6246 130.842 55.0611 130.3 55.2724C129.758 55.4836 128.955 55.7723 128.518 55.9132C128.089 56.054 127.293 56.2793 126.765 56.4131C126.23 56.5469 125.427 56.7159 124.983 56.7934C124.54 56.8778 123.779 56.9905 123.293 57.0539C122.772 57.1173 121.632 57.1806 120.477 57.2018C119.012 57.2299 118.259 57.2088 117.379 57.1243C116.738 57.068 115.724 56.9342 115.125 56.8286C114.527 56.73 113.59 56.5328 113.048 56.399C112.506 56.2652 111.52 55.9695 110.865 55.7442C110.21 55.5188 109.288 55.1668 108.823 54.9696C108.358 54.7724 107.535 54.3781 106.992 54.0965C106.45 53.8148 105.556 53.3008 105 52.9557C104.443 52.6107 103.634 52.0615 103.19 51.7305C102.746 51.3996 102.049 50.8433 101.627 50.4842C101.211 50.1321 100.387 49.3575 99.81 48.759C99.2256 48.1675 98.4791 47.3507 98.1412 46.9423C97.8102 46.5339 97.2891 45.8508 96.9863 45.4283C96.6765 45.0059 96.2047 44.2876 95.9301 43.844C95.6555 43.4004 95.3105 42.823 94.9161 42.0836L79.6712 42.0907L78.0728 40.0416C77.1856 38.922 76.4674 37.9643 76.4674 37.9291C76.4674 37.8798 79.284 37.8587 84.7764 37.8587C89.3463 37.8587 93.0853 37.8446 93.0853 37.8235C93.0853 37.8024 92.9445 37.3024 92.7826 36.7109C92.6136 36.1265 92.4305 35.4435 92.2756 34.7604L73.9113 34.7252L70.6933 30.6059H91.7475L91.7122 27.4725L68.2006 27.4021L65.0038 23.318L92.2756 23.2828L92.4023 22.7406C92.4727 22.4378 92.6558 21.7548 92.8107 21.2196L92.846 21.0935C92.9782 20.6216 93.0853 20.2391 93.0853 20.2197C93.0853 20.1986 86.2199 20.1845 62.5604 20.1845L59.2931 15.9948L94.9161 15.9596L95.3809 15.1357C95.6344 14.678 96.1414 13.8612 96.5005 13.319C96.8596 12.7768 97.5004 11.9037 97.9229 11.3826C98.3383 10.8615 99.1411 9.96021 99.7044 9.3828C100.268 8.8054 101.077 8.03787 101.5 7.67172C101.922 7.30556 102.627 6.74223 103.049 6.41832C103.472 6.09441 104.232 5.57334 104.739 5.24943C105.246 4.92552 106.084 4.43262 106.605 4.15096C107.126 3.8693 108.027 3.42568 108.612 3.17218C109.189 2.91165 110.316 2.48916 111.112 2.22862C111.907 1.96104 113.062 1.63009 113.682 1.4963C114.301 1.36251 115.266 1.17943 115.829 1.10198Z" fill="#D9D9D9"/>
<path d="M87.6282 66.5177C87.7831 66.4121 88.0507 66.2712 88.2267 66.2079C88.4943 66.1163 88.8886 66.1022 90.9025 66.1163C93.1769 66.1304 93.2755 66.1374 93.5783 66.2853C93.7543 66.3698 94.0359 66.5599 94.2049 66.7078C94.388 66.8698 94.5993 67.1514 94.7331 67.4331C94.951 67.8831 94.9513 67.9048 94.9864 70.2392L94.9866 70.2497H92.2404V69.5103C92.2404 68.9963 92.2052 68.7076 92.1347 68.5597C92.0784 68.44 91.9235 68.2992 91.7827 68.2429C91.6137 68.1724 91.2968 68.1372 90.7969 68.1372C90.2406 68.1372 89.9941 68.1654 89.804 68.2569C89.6632 68.3274 89.5012 68.4682 89.4519 68.5738C89.3674 68.7358 89.3533 69.6723 89.3885 78.8544L89.8462 79.2628H91.7615L92.2404 78.7699V76.5166H94.9866L94.9654 78.0094C94.9443 79.2769 94.9232 79.5656 94.8105 79.8614C94.7331 80.0515 94.5289 80.3684 94.3458 80.5655C94.1416 80.7908 93.8599 80.9951 93.1206 81.3401H88.4731L88.0154 81.1148C87.7549 80.988 87.438 80.7627 87.2831 80.5866C87.1282 80.4247 86.924 80.1078 86.6424 79.5093V73.7705C86.6424 68.5104 86.6494 68.0035 86.7621 67.6795C86.8325 67.4824 86.9874 67.1866 87.1141 67.0176C87.2409 66.8486 87.4733 66.6233 87.6282 66.5177Z" fill="#D9D9D9"/>
<path d="M102.014 66.4261C102.211 66.3205 102.5 66.2079 102.648 66.1727C102.789 66.1375 103.753 66.1093 104.795 66.1022C106.499 66.0952 106.718 66.1093 107.098 66.236C107.33 66.3135 107.654 66.4614 107.823 66.567C107.985 66.6726 108.246 66.8839 108.401 67.0458C108.556 67.2078 108.767 67.4965 108.872 67.6866C108.978 67.8767 109.112 68.257 109.168 68.5245C109.26 68.94 109.281 69.7779 109.281 73.7C109.281 77.6222 109.26 78.4601 109.168 78.8756C109.112 79.1431 108.964 79.5515 108.837 79.7839C108.71 80.0092 108.464 80.3332 108.281 80.5021C108.091 80.6711 107.746 80.9035 107.506 81.0232C107.26 81.1359 106.859 81.2626 106.605 81.2978C106.352 81.3401 105.549 81.3753 104.809 81.3753C104.07 81.3753 103.246 81.3401 102.979 81.2978C102.711 81.2626 102.296 81.1359 102.063 81.0232C101.831 80.9176 101.472 80.6571 101.261 80.4458C101.007 80.1994 100.789 79.8966 100.373 79.0164L100.352 73.8761C100.338 69.3343 100.352 68.6935 100.451 68.3485C100.514 68.1372 100.648 67.8063 100.747 67.6162C100.852 67.4331 101.099 67.1233 101.289 66.9402C101.486 66.7571 101.81 66.5247 102.014 66.4261Z" fill="#D9D9D9"/>
<path d="M115.9 66.4614C116.076 66.3557 116.329 66.236 116.463 66.1867C116.646 66.1234 117.294 66.1022 118.963 66.1163C121.125 66.1304 121.23 66.1374 121.533 66.2853C121.709 66.3698 122.005 66.574 122.195 66.743C122.406 66.9331 122.617 67.2148 122.977 67.9612L123.012 80.9528H120.195L120.181 74.9041L120.181 74.8467C120.16 68.9744 120.16 68.8478 120.019 68.6583C119.942 68.5597 119.787 68.4048 119.681 68.3203C119.547 68.2217 119.343 68.1654 119.083 68.1443C118.857 68.1302 118.562 68.1372 118.421 68.1654C118.266 68.1865 118.048 68.2992 117.907 68.433C117.717 68.609 117.639 68.7569 117.583 69.0174C117.541 69.2357 117.526 71.6017 117.555 80.9528H114.703L114.738 67.9612L114.921 67.5739C115.02 67.3627 115.21 67.0669 115.344 66.912C115.477 66.7641 115.724 66.5599 115.9 66.4614Z" fill="#D9D9D9"/>
<path d="M129.56 66.7219C129.807 66.4754 130.067 66.2853 130.265 66.2149C130.518 66.1304 130.926 66.1022 132.342 66.1022C133.926 66.0952 134.151 66.1093 134.56 66.236C134.813 66.3135 135.165 66.4895 135.356 66.6233C135.539 66.7571 135.785 67.0036 135.905 67.1655C136.025 67.3345 136.208 67.6443 136.306 67.8556C136.405 68.0668 136.524 68.4823 136.574 68.771C136.623 69.0597 136.665 69.4963 136.672 70.1793H133.926V69.5596C133.933 68.9822 133.919 68.9329 133.736 68.7498C133.539 68.5597 133.525 68.5527 132.715 68.5597C132.257 68.5597 131.821 68.5879 131.743 68.6301C131.666 68.6654 131.553 68.8132 131.497 68.947C131.419 69.1301 131.391 69.4822 131.391 70.3553C131.391 71.2285 131.419 71.5805 131.497 71.7636C131.553 71.8974 131.687 72.0664 131.793 72.1298C131.955 72.2354 132.215 72.2636 133.539 72.2917C135.039 72.3269 135.102 72.334 135.475 72.5171C135.687 72.6227 136.017 72.841 136.208 73.01C136.433 73.2142 136.63 73.4818 137.06 74.3619V79.1572L136.87 79.5586C136.757 79.7839 136.524 80.1289 136.341 80.3261C136.137 80.5444 135.827 80.7697 135.088 81.1288H132.694C130.448 81.1288 130.286 81.1218 130.018 80.988C129.863 80.9106 129.624 80.7345 129.49 80.6007C129.356 80.4669 129.18 80.2275 129.103 80.0726C128.976 79.8191 128.962 79.622 128.927 76.7983H131.532V77.6574C131.532 78.3404 131.56 78.5728 131.659 78.7629C131.722 78.8967 131.87 79.0727 131.976 79.1502C132.145 79.2769 132.278 79.298 132.891 79.298C133.518 79.298 133.637 79.2769 133.842 79.1361C133.961 79.0516 134.116 78.8896 134.173 78.7699C134.257 78.6009 134.278 78.2559 134.278 77.1152C134.278 75.9744 134.257 75.6294 134.173 75.4604C134.116 75.3407 133.961 75.1788 133.842 75.0872C133.623 74.9393 133.525 74.9323 131.99 74.8971C130.525 74.8619 130.342 74.8478 130.089 74.714C129.934 74.6295 129.652 74.3901 129.469 74.1859C129.244 73.9395 129.096 73.686 129.025 73.4536C128.948 73.179 128.927 72.5523 128.927 70.4961C128.927 68.2217 128.941 67.8415 129.046 67.5035C129.138 67.2148 129.265 67.0176 129.56 66.7219Z" fill="#D9D9D9"/>
<path d="M183.322 66.3557C183.477 66.2783 183.682 66.1867 183.78 66.1586C183.879 66.1304 185.034 66.1093 186.35 66.1163C188.681 66.1304 188.751 66.1374 189.047 66.2853C189.209 66.3769 189.491 66.5811 189.667 66.743C189.843 66.912 190.075 67.2218 190.174 67.4331C190.357 67.7992 190.364 67.8837 190.399 70.2497H187.723V69.5807C187.723 69.1442 187.688 68.8273 187.618 68.6654C187.561 68.5316 187.406 68.3555 187.287 68.2781C187.09 68.1584 186.928 68.1372 186.245 68.1372C185.562 68.1372 185.4 68.1584 185.21 68.2781C185.083 68.3555 184.928 68.5316 184.872 68.6654C184.78 68.8766 184.766 69.5878 184.787 73.8197C184.801 78.277 184.815 78.7488 184.921 78.9108C184.984 79.0093 185.118 79.1291 185.217 79.1713C185.329 79.2276 185.709 79.2628 186.245 79.2628C186.78 79.2628 187.16 79.2276 187.273 79.1713C187.371 79.1291 187.505 79.0093 187.568 78.9108C187.667 78.7699 187.688 78.5235 187.723 76.5166H190.399V77.9038C190.399 78.9248 190.371 79.3896 190.301 79.6501C190.237 79.8402 190.089 80.1571 189.963 80.3472C189.836 80.5374 189.575 80.7979 189.378 80.9246C189.188 81.0584 188.85 81.2063 188.639 81.2626C188.329 81.3471 187.815 81.3612 186.104 81.3542C184.005 81.3401 183.949 81.333 183.534 81.1641C183.28 81.0584 182.984 80.8683 182.794 80.6711C182.618 80.4951 182.393 80.1923 182.125 79.6501V73.7705C182.125 68.1232 182.132 67.8767 182.259 67.5387C182.337 67.3416 182.541 67.0317 182.717 66.8416C182.893 66.6585 183.168 66.4402 183.322 66.3557Z" fill="#D9D9D9"/>
<path d="M217.551 66.6233C217.777 66.4754 218.143 66.2924 218.354 66.2219C218.692 66.1163 218.988 66.1022 220.748 66.1163C222.642 66.1304 222.776 66.1375 223.142 66.2924C223.353 66.3769 223.684 66.567 223.882 66.7078C224.072 66.8557 224.346 67.1303 224.494 67.3275C224.642 67.5176 224.832 67.8556 225.079 68.4541L225.1 73.5592C225.114 78.0869 225.1 78.7066 225.001 79.0516C224.938 79.2628 224.825 79.5656 224.741 79.7205C224.663 79.8755 224.452 80.1571 224.276 80.3472C224.1 80.5374 223.825 80.7697 223.67 80.8683C223.515 80.9669 223.213 81.1077 223.001 81.1852C222.67 81.3049 222.375 81.326 220.995 81.3612C219.981 81.3823 219.192 81.3612 218.882 81.3119C218.615 81.2697 218.192 81.1429 217.953 81.0232C217.706 80.9106 217.361 80.6711 217.178 80.5021C216.988 80.3332 216.727 79.9811 216.58 79.7135C216.439 79.4459 216.291 79.0375 216.249 78.8051C216.199 78.5235 216.171 76.7842 216.171 73.7C216.171 70.8271 216.199 68.8696 216.242 68.6301C216.284 68.4189 216.403 68.0527 216.523 67.8204C216.636 67.588 216.819 67.2852 216.932 67.1514C217.044 67.0176 217.319 66.7782 217.551 66.6233Z" fill="#D9D9D9"/>
<path d="M232.085 66.4543C232.261 66.3557 232.514 66.236 232.648 66.1867C232.831 66.1234 233.479 66.1022 237.401 66.1304L237.817 66.3417C238.042 66.4614 238.359 66.6937 238.521 66.8698C238.683 67.0458 238.887 67.3486 239.162 67.8908L239.197 80.9528H236.38L236.366 74.9041L236.366 74.8472C236.345 68.9744 236.345 68.8478 236.204 68.6583C236.127 68.5597 235.972 68.4048 235.866 68.3203C235.697 68.1936 235.57 68.1724 235.042 68.1724C234.521 68.1724 234.388 68.1936 234.219 68.3203C234.113 68.4048 233.958 68.5738 233.881 68.7076C233.74 68.94 233.74 69.0738 233.74 80.9528H230.888L230.923 67.9612L231.085 67.6091C231.177 67.412 231.367 67.1162 231.508 66.9472C231.648 66.7782 231.909 66.5529 232.085 66.4543Z" fill="#D9D9D9"/>
<path d="M64.8136 73.0804C64.7291 72.7494 64.708 72.1087 64.708 69.5103V66.3417H67.4542V72.7142H70.3412V66.3769H73.0874V80.9528H70.3412V75.4604H68.8625C67.6373 75.4604 67.3134 75.4393 66.9824 75.3337C66.7571 75.2633 66.4332 75.1224 66.2572 75.0238C66.0811 74.9253 65.7783 74.6718 65.5812 74.4676C65.384 74.2563 65.1516 73.9535 65.0742 73.7845C64.9897 73.6226 64.87 73.3057 64.8136 73.0804Z" fill="#D9D9D9"/>
<path d="M154.121 73.7141C154.114 69.623 154.142 66.4473 154.171 66.4191C154.206 66.3909 155.727 66.3769 160.86 66.4121L161.247 66.5951C161.459 66.6937 161.789 66.9191 161.98 67.0881C162.191 67.2782 162.402 67.5739 162.761 68.3133L162.782 69.7568C162.803 70.9116 162.789 71.2848 162.698 71.6228C162.634 71.8552 162.472 72.2002 162.339 72.3974C162.205 72.5875 161.958 72.8551 161.789 72.9818C161.627 73.1086 161.473 73.2142 161.444 73.2071C161.409 73.2071 161.388 73.2494 161.388 73.2916C161.381 73.3409 161.487 73.4325 161.606 73.4888C161.733 73.5451 161.93 73.7071 162.057 73.8409C162.198 73.9958 162.311 74.2211 162.36 74.4535C162.416 74.707 162.444 75.8055 162.444 80.9528H159.698V78.1855C159.705 75.4252 159.705 75.4252 159.543 75.1858C159.452 75.052 159.29 74.876 159.184 74.7985C159.036 74.6859 158.881 74.6507 158.586 74.6507C158.318 74.6507 158.107 74.6999 157.952 74.7915C157.825 74.8689 157.649 75.045 157.565 75.1788C157.417 75.4182 157.41 75.4886 157.374 80.9528H154.135L154.121 73.7141Z" fill="#D9D9D9"/>
<path d="M168.394 79.5093L168.373 72.9396L168.359 66.3769H171.176V72.3762C171.176 77.9531 171.183 78.3967 171.303 78.6291C171.366 78.7629 171.535 78.946 171.669 79.0375C171.873 79.1713 172.007 79.1995 172.478 79.1995C172.95 79.1995 173.084 79.1713 173.288 79.0375C173.422 78.946 173.591 78.7629 173.661 78.6291C173.774 78.3967 173.781 77.9531 173.781 66.3769H176.598L176.563 79.5093L176.387 79.8614C176.295 80.0515 176.07 80.3543 175.894 80.5303C175.718 80.7064 175.422 80.9317 174.873 81.1993H170.084L169.732 81.0232C169.542 80.9317 169.239 80.7064 169.063 80.5303C168.887 80.3543 168.662 80.0515 168.394 79.5093Z" fill="#D9D9D9"/>
<path d="M141.524 68.9048V67.6725V66.4402H149.763L149.727 68.8696L147.157 68.9048V80.9458H144.129V68.9048H141.524Z" fill="#D9D9D9"/>
<path d="M194.758 68.9048V67.6725V66.4402H202.926V68.9048H200.321V80.9458H197.363V68.9048H194.758Z" fill="#D9D9D9"/>
<path d="M207.785 80.9458V73.693V66.4402H210.742V80.9458H207.785Z" fill="#D9D9D9"/>
<path d="M116.428 4.65793C116.851 4.59455 117.519 4.5171 117.907 4.48189C118.294 4.44668 119.371 4.4326 120.301 4.44668C121.258 4.46076 122.371 4.52414 122.871 4.58047C123.357 4.64384 124.082 4.75651 124.491 4.84101C124.899 4.91846 125.483 5.04521 125.793 5.12267C126.103 5.20012 126.737 5.37616 127.202 5.51699C127.666 5.65078 128.455 5.93244 128.962 6.13665C129.469 6.34085 130.243 6.67884 130.687 6.89713C131.131 7.11542 131.786 7.45341 132.131 7.65761C132.476 7.85478 133.131 8.26318 133.574 8.55189C134.018 8.84763 134.778 9.40391 135.264 9.79119C135.75 10.1785 136.539 10.8756 137.017 11.3474C137.496 11.8121 138.165 12.5092 138.496 12.8965C138.834 13.2838 139.341 13.9175 139.637 14.3048C139.933 14.6921 140.411 15.3892 140.714 15.8539C141.01 16.3187 141.587 17.3679 141.989 18.1776C142.39 18.9874 142.848 20.0155 143.003 20.4521C143.165 20.8816 143.418 21.6773 143.573 22.2054C143.728 22.7405 143.953 23.6348 144.066 24.1981C144.179 24.7615 144.327 25.6769 144.39 26.2402C144.481 26.9514 144.517 27.7964 144.517 29.0216C144.517 30.2609 144.481 31.0847 144.39 31.803C144.327 32.3663 144.193 33.2183 144.101 33.7042C144.003 34.1901 143.805 35.028 143.651 35.5702C143.496 36.1124 143.263 36.8729 143.122 37.2602C142.989 37.6474 142.77 38.2178 142.637 38.5276C142.503 38.8375 142.256 39.3726 142.087 39.7247C141.925 40.0768 141.594 40.6894 141.369 41.0978C141.137 41.5062 140.707 42.2033 140.411 42.6469C140.116 43.0905 139.559 43.851 139.179 44.3369C138.799 44.8228 137.94 45.7593 137.278 46.4212C136.616 47.0831 135.729 47.8999 135.299 48.2379C134.87 48.5759 134.13 49.1181 133.645 49.442C133.159 49.7659 132.398 50.2377 131.955 50.4912C131.511 50.7447 130.736 51.139 130.229 51.3714C129.722 51.6037 128.934 51.9276 128.469 52.1037C128.004 52.2797 127.23 52.5332 126.744 52.667C126.258 52.8008 125.575 52.9768 125.23 53.0613C124.885 53.1388 124.188 53.2726 123.681 53.35C123.174 53.4275 122.287 53.5261 121.709 53.5683C121.09 53.6176 120.068 53.6317 119.245 53.6106C118.47 53.5894 117.442 53.519 116.956 53.4557C116.47 53.3923 115.682 53.2655 115.196 53.174C114.71 53.0754 113.872 52.8783 113.33 52.7233C112.788 52.5684 112.119 52.3642 111.851 52.2727C111.583 52.1811 111.006 51.9558 110.584 51.7868C110.161 51.6108 109.415 51.2657 108.929 51.0263C108.443 50.7869 107.732 50.3926 107.344 50.1602C106.957 49.9279 106.338 49.5335 105.971 49.273C105.605 49.0195 104.908 48.4914 104.422 48.1041C103.936 47.7168 103.127 46.9915 102.627 46.4846C102.12 45.9846 101.472 45.2875 101.176 44.9354C100.88 44.5833 100.394 43.9637 100.085 43.5482C99.7819 43.1328 99.3242 42.4709 99.0777 42.0695C98.8242 41.6682 98.4088 40.9358 98.1482 40.4288C97.8807 39.9219 97.5215 39.1825 97.3455 38.7741C97.1624 38.3657 96.8596 37.577 96.6625 37.0137C96.4724 36.4504 96.1977 35.4998 96.0428 34.9013C95.8949 34.3027 95.7119 33.4014 95.6344 32.8944C95.5499 32.3874 95.4513 31.6129 95.4091 31.1692C95.3739 30.7256 95.3387 29.7609 95.3387 29.0216C95.3387 28.2822 95.3739 27.3175 95.4091 26.8739C95.4513 26.4303 95.564 25.5924 95.6555 25.0079C95.7541 24.4305 95.9442 23.5222 96.078 23.0011C96.2118 22.48 96.4583 21.6562 96.6132 21.1703C96.7751 20.6844 97.0498 19.9591 97.2188 19.5507C97.3948 19.1423 97.7257 18.4311 97.9581 17.9664C98.1975 17.5017 98.5778 16.8045 98.8101 16.4173C99.0425 16.03 99.4368 15.4103 99.6974 15.0442C99.9509 14.678 100.465 13.995 100.838 13.5302C101.211 13.0655 101.894 12.305 102.352 11.8332C102.817 11.3615 103.472 10.7348 103.824 10.432C104.176 10.1292 104.824 9.61516 105.267 9.27716C105.711 8.94621 106.507 8.41106 107.028 8.08715C107.549 7.76324 108.45 7.26329 109.034 6.97459C109.612 6.68588 110.485 6.29156 110.971 6.10144C111.457 5.91132 112.281 5.62966 112.802 5.47474C113.323 5.31279 114.182 5.0945 114.703 4.98184C115.224 4.86213 116.006 4.7213 116.428 4.65793Z" fill="#010101"/>
<path d="M103.598 68.6301C103.641 68.5386 103.788 68.3907 103.922 68.2992C104.126 68.1654 104.26 68.1372 104.753 68.1372C105.119 68.1372 105.429 68.1795 105.584 68.2428C105.725 68.2992 105.88 68.44 105.936 68.5597C106.028 68.7428 106.042 69.4681 106.042 78.7699L105.563 79.2628H104.852C104.359 79.2628 104.077 79.2276 103.929 79.1572C103.81 79.1009 103.669 78.96 103.612 78.8403C103.521 78.6572 103.507 77.9461 103.507 73.7211C103.507 69.961 103.528 68.7639 103.598 68.6301Z" fill="#010101"/>
<path d="M219.523 68.4963C219.586 68.4118 219.734 68.2921 219.861 68.2358C219.988 68.1865 220.333 68.1443 220.678 68.1372C221.157 68.1372 221.326 68.1654 221.502 68.2781C221.628 68.3555 221.783 68.5104 221.84 68.6301C221.931 68.8132 221.945 69.5244 221.945 73.7C221.945 78.1855 221.938 78.5798 221.818 78.8122C221.755 78.953 221.614 79.115 221.502 79.1642C221.382 79.2276 221.058 79.2628 219.903 79.2628L219.41 78.7699V73.7211C219.41 69.1723 219.417 68.6513 219.523 68.4963Z" fill="#010101"/>
<path d="M157.41 73.0311L157.389 70.6581L157.374 68.2781H158.093C158.712 68.2781 158.86 68.2992 159.128 68.433C159.311 68.5315 159.487 68.6935 159.564 68.8414C159.684 69.0597 159.698 69.2568 159.698 70.6722C159.698 72.0875 159.684 72.2847 159.564 72.503C159.487 72.6508 159.311 72.8128 159.128 72.9114C158.853 73.0522 158.733 73.0663 157.41 73.0311Z" fill="#010101"/>
<path d="M17.3116 73.6367V71.1017V68.5668H19.9169V73.6367H17.3116Z" fill="#010101"/>
<path d="M117.625 9.34757C118.012 9.30533 118.442 9.26308 118.576 9.24899C118.709 9.23491 119.252 9.22083 119.773 9.21379C120.294 9.20674 121.104 9.23491 121.568 9.27716C122.033 9.31237 122.779 9.41095 123.223 9.48841C123.667 9.56586 124.399 9.72078 124.843 9.83344C125.286 9.9461 126.026 10.1644 126.483 10.3193C126.934 10.4813 127.631 10.7559 128.025 10.9319C128.427 11.108 129.068 11.4319 129.455 11.6431C129.842 11.8544 130.504 12.2628 130.934 12.5444C131.363 12.8331 131.976 13.2767 132.307 13.5443C132.638 13.8049 133.349 14.4597 133.898 15.009C134.447 15.5512 135.13 16.2976 135.419 16.6637C135.715 17.0299 136.186 17.6847 136.468 18.1072C136.757 18.5368 137.236 19.3606 137.531 19.938C137.827 20.5225 138.214 21.3604 138.39 21.804C138.567 22.2476 138.813 22.994 138.947 23.4588C139.081 23.9235 139.257 24.6206 139.341 25.0079C139.419 25.3952 139.531 26.0782 139.588 26.5218C139.644 26.9655 139.714 27.7611 139.735 28.2822C139.764 28.8174 139.749 29.6905 139.707 30.2891C139.665 30.8665 139.566 31.7255 139.489 32.1903C139.419 32.655 139.243 33.4648 139.109 33.9859C138.975 34.5069 138.728 35.3167 138.567 35.7814C138.398 36.2462 137.989 37.1827 137.651 37.8587C137.313 38.5347 136.792 39.4571 136.496 39.9007C136.201 40.3443 135.715 41.0133 135.426 41.3794C135.13 41.7456 134.412 42.5272 133.828 43.1046C133.243 43.6891 132.398 44.4355 131.955 44.7735C131.511 45.1044 130.828 45.5762 130.441 45.8227C130.053 46.0691 129.356 46.4564 128.891 46.6958C128.427 46.9352 127.701 47.2662 127.272 47.4281C126.842 47.5971 126.152 47.8436 125.723 47.9703C125.293 48.1041 124.505 48.3013 123.962 48.4139C123.42 48.5266 122.646 48.6604 122.237 48.7167C121.787 48.773 120.829 48.8083 119.808 48.8012C118.442 48.7942 117.921 48.766 117.097 48.6393C116.534 48.5548 115.597 48.3576 115.02 48.2097C114.435 48.0619 113.555 47.7872 113.048 47.6042C112.541 47.4211 111.626 47.0127 111.006 46.6958C110.386 46.386 109.598 45.9424 109.246 45.717C108.894 45.4847 108.358 45.1115 108.049 44.8791C107.739 44.6467 107.246 44.2453 106.957 43.9989C106.668 43.7454 106.119 43.2243 105.732 42.83C105.352 42.4357 104.809 41.8301 104.528 41.4851C104.239 41.133 103.739 40.4429 103.401 39.9359C103.063 39.4289 102.507 38.4502 102.169 37.7531C101.824 37.056 101.401 36.0772 101.232 35.5702C101.056 35.0632 100.817 34.2464 100.69 33.7394C100.57 33.2324 100.401 32.4156 100.324 31.9086C100.247 31.3805 100.169 30.4088 100.148 29.6201C100.12 28.761 100.141 27.902 100.19 27.3316C100.24 26.8246 100.338 26.0501 100.416 25.6064C100.493 25.1628 100.648 24.4446 100.761 24.0221C100.873 23.5926 101.092 22.8673 101.254 22.4026C101.415 21.9378 101.81 21.0154 102.134 20.3605C102.458 19.6986 102.901 18.8748 103.12 18.5297C103.338 18.1776 103.739 17.5932 104.014 17.227C104.295 16.8609 104.809 16.2271 105.169 15.8187C105.528 15.4103 106.077 14.84 106.401 14.5513C106.718 14.2626 107.175 13.8612 107.408 13.6711C107.647 13.4739 108.105 13.1218 108.436 12.8895C108.767 12.65 109.358 12.2628 109.76 12.0234C110.154 11.7839 110.788 11.4389 111.161 11.2488C111.541 11.0587 112.217 10.7629 112.661 10.5869C113.104 10.4108 113.851 10.1573 114.316 10.0236C114.78 9.88977 115.555 9.69965 116.041 9.60107C116.527 9.50249 117.238 9.38982 117.625 9.34757Z" fill="#75EF42"/>
<path d="M118.998 21.1703V19.9732V18.7762H121.258L121.287 21.1985L121.815 21.29C122.103 21.3393 122.596 21.452 122.906 21.5505C123.216 21.6491 123.695 21.8252 123.962 21.9449C124.23 22.0716 124.681 22.311 124.948 22.4871C125.216 22.6631 125.61 22.9448 125.807 23.1138C126.011 23.2828 126.18 23.4588 126.18 23.494C126.18 23.5292 125.772 24.1489 125.265 24.8671C124.758 25.5853 124.336 26.1698 124.314 26.1698C124.293 26.1698 124.145 26.0501 123.976 25.9022C123.807 25.7614 123.448 25.5079 123.181 25.3459C122.913 25.184 122.456 24.9586 122.167 24.8389C121.878 24.7263 121.554 24.6136 121.251 24.5502L121.287 28.0992L121.533 28.1696C121.667 28.2048 122.11 28.3456 122.519 28.4724C122.927 28.6061 123.561 28.8737 123.927 29.0638C124.293 29.254 124.772 29.5427 124.983 29.7187C125.195 29.8877 125.504 30.1975 125.666 30.4017C125.828 30.613 126.04 30.9369 126.138 31.1341C126.237 31.3242 126.378 31.7396 126.462 32.0494C126.561 32.4297 126.603 32.8311 126.603 33.2958C126.603 33.676 126.554 34.2323 126.49 34.5281C126.427 34.8308 126.3 35.2674 126.209 35.4998C126.11 35.7322 125.934 36.0772 125.807 36.2744C125.688 36.4645 125.427 36.7954 125.23 37.0067C125.04 37.2109 124.702 37.4996 124.491 37.6475C124.279 37.7883 123.941 37.9925 123.751 38.084C123.554 38.1826 123.146 38.3446 122.836 38.4431C122.526 38.5347 122.04 38.6544 121.251 38.7741V41.0978H118.998V38.7741L118.66 38.7319C118.477 38.7107 118.09 38.6403 117.801 38.584C117.512 38.5276 117.034 38.4009 116.745 38.3023C116.456 38.2108 115.963 38.0066 115.653 37.8587C115.344 37.7038 114.865 37.4292 114.597 37.239C114.33 37.0489 113.921 36.7321 113.696 36.5349C113.478 36.3307 113.294 36.1335 113.294 36.0983C113.294 36.0631 113.703 35.4083 115.125 33.2817L115.597 33.7183C115.865 33.9577 116.301 34.2957 116.569 34.4717C116.836 34.6478 117.259 34.8731 117.498 34.9858C117.745 35.0914 118.153 35.2463 118.414 35.3167C118.681 35.3942 118.921 35.4364 118.949 35.4083C118.977 35.3801 118.998 34.4788 118.998 31.4509L118.702 31.3805C118.533 31.3383 118.097 31.2045 117.731 31.0848C117.364 30.9721 116.745 30.7116 116.358 30.5144C115.794 30.2257 115.541 30.0356 115.083 29.5849C114.639 29.1483 114.456 28.9019 114.259 28.4935C114.118 28.2048 113.956 27.7189 113.9 27.4232C113.837 27.1204 113.787 26.6345 113.787 26.3458C113.787 26.0571 113.837 25.5853 113.9 25.3107C113.956 25.0291 114.076 24.6418 114.154 24.4446C114.238 24.2545 114.435 23.8883 114.597 23.6348C114.759 23.3813 115.083 23.0011 115.308 22.7828C115.534 22.5645 115.914 22.2688 116.146 22.1209C116.379 21.973 116.759 21.7688 116.991 21.6773C117.224 21.5787 117.604 21.452 117.836 21.3815C118.069 21.3182 118.428 21.2407 118.998 21.1703Z" fill="#010101"/>
<path d="M117.963 24.7826C118.09 24.6911 118.315 24.5713 118.47 24.515C118.625 24.4587 118.808 24.4164 118.878 24.4094C118.991 24.4094 118.998 24.5291 118.998 25.9233C118.998 26.7542 118.977 27.4513 118.949 27.4654C118.914 27.4795 118.688 27.402 118.435 27.2823C118.181 27.1697 117.872 27.0007 117.752 26.9021C117.618 26.8106 117.47 26.5993 117.407 26.4374C117.332 26.2355 117.308 26.0289 117.336 25.8177C117.357 25.6417 117.456 25.3741 117.562 25.2192C117.66 25.0643 117.836 24.8671 117.963 24.7826Z" fill="#75EF42"/>
<path d="M121.251 35.4646V33.7746C121.251 32.6973 121.28 32.0846 121.322 32.0846C121.364 32.0846 121.589 32.1621 121.836 32.2607C122.075 32.3522 122.413 32.5564 122.582 32.6973C122.751 32.8451 122.934 33.0493 122.984 33.155C123.04 33.2676 123.082 33.507 123.082 33.7042C123.082 33.8943 123.033 34.176 122.97 34.3168C122.913 34.4647 122.765 34.69 122.639 34.8238C122.512 34.9505 122.223 35.1477 121.991 35.2604C121.758 35.373 121.498 35.4646 121.251 35.4646Z" fill="#75EF42"/>
</svg>
