<svg width="24" height="24" viewBox="0 0 24 24" fill="none" xmlns="http://www.w3.org/2000/svg">
<path d="M14.4 9.22222C14.73 9.22222 15 8.97222 15 8.66667C15 8.36111 14.73 8.11111 14.4 8.11111H12.6V7.55556C12.6 7.25 12.33 7 12 7C11.67 7 11.4 7.25 11.4 7.55556V8.11111C10.074 8.11111 9 9.10556 9 10.3333C9 11.5611 10.074 12.5556 11.4 12.5556V14.7778H9.6C9.27 14.7778 9 15.0278 9 15.3333C9 15.6389 9.27 15.8889 9.6 15.8889H11.4V16.4444C11.4 16.75 11.67 17 12 17C12.33 17 12.6 16.75 12.6 16.4444V15.8889C13.926 15.8889 15 14.8944 15 13.6667C15 12.4389 13.926 11.4444 12.6 11.4444V9.22222H14.4ZM11.4 11.4444C10.74 11.4444 10.2 10.9444 10.2 10.3333C10.2 9.72222 10.74 9.22222 11.4 9.22222V11.4444ZM13.8 13.6667C13.8 14.2778 13.26 14.7778 12.6 14.7778V12.5556C13.26 12.5556 13.8 13.0556 13.8 13.6667Z" fill="white" fill-opacity="0.5"/>
<path d="M12 1.5C6.21 1.5 1.5 6.21 1.5 12C1.5 17.79 6.21 22.5 12 22.5C17.79 22.5 22.5 17.79 22.5 12C22.5 6.21 17.79 1.5 12 1.5ZM12 21.5C6.76 21.5 2.5 17.24 2.5 12C2.5 6.76 6.76 2.5 12 2.5C17.24 2.5 21.5 6.76 21.5 12C21.5 17.24 17.24 21.5 12 21.5Z" fill="white" fill-opacity="0.5"/>
</svg>
