<svg width="56" height="56" viewBox="0 0 56 56" fill="none" xmlns="http://www.w3.org/2000/svg">
<rect width="56" height="56" rx="28" fill="#E2B93B" fill-opacity="0.15"/>
<path d="M13.62 33.7784C13.5259 33.4972 13.4398 33.2091 13.3642 32.9219C13.3324 32.8018 13.2543 32.6992 13.1469 32.6366C13.0395 32.5741 12.9117 32.5567 12.7915 32.5883C12.6714 32.62 12.5687 32.6981 12.5061 32.8054C12.4434 32.9127 12.426 33.0405 12.4576 33.1607C12.5384 33.4676 12.6304 33.7756 12.7311 34.0761C12.7506 34.1346 12.7814 34.1886 12.8218 34.2351C12.8622 34.2816 12.9113 34.3197 12.9665 34.3473C13.0216 34.3748 13.0816 34.3911 13.143 34.3954C13.2045 34.3997 13.2662 34.3919 13.3246 34.3723C13.383 34.3528 13.437 34.3219 13.4835 34.2814C13.53 34.241 13.568 34.1918 13.5954 34.1366C13.6229 34.0815 13.6392 34.0214 13.6434 33.96C13.6476 33.8985 13.6397 33.8368 13.62 33.7784ZM14.2978 35.4316C14.2707 35.3763 14.233 35.3268 14.1869 35.2861C14.1407 35.2454 14.087 35.2142 14.0288 35.1942C13.9705 35.1742 13.9089 35.1659 13.8475 35.1698C13.7861 35.1736 13.726 35.1895 13.6707 35.2166C13.6154 35.2436 13.566 35.2813 13.5253 35.3275C13.4845 35.3736 13.4533 35.4273 13.4333 35.4856C13.4134 35.5438 13.4051 35.6054 13.4089 35.6668C13.4127 35.7283 13.4286 35.7883 13.4557 35.8436C13.5949 36.1281 13.7454 36.4116 13.9029 36.6863C13.9648 36.7941 14.067 36.8728 14.1869 36.9053C14.3069 36.9378 14.4349 36.9213 14.5427 36.8594C14.6505 36.7976 14.7293 36.6955 14.7618 36.5755C14.7943 36.4556 14.7779 36.3276 14.7161 36.2198C14.5687 35.9629 14.428 35.6977 14.2978 35.4316ZM12.6164 31.6922C12.6775 31.6844 12.7364 31.6647 12.7898 31.6341C12.8433 31.6036 12.8902 31.5628 12.9279 31.5141C12.9655 31.4654 12.9933 31.4098 13.0094 31.3504C13.0256 31.291 13.0299 31.229 13.0222 31.1679L13.0199 31.15C12.983 30.8604 12.955 30.5668 12.9365 30.2772C12.9287 30.1531 12.8718 30.0372 12.7785 29.9551C12.6852 29.8729 12.5631 29.8312 12.4391 29.839C12.315 29.8469 12.1991 29.9038 12.117 29.997C12.0348 30.0903 11.9931 30.2125 12.0009 30.3365C12.0206 30.6458 12.0505 30.9593 12.0899 31.2685L12.0922 31.2864C12.0999 31.3475 12.1197 31.4064 12.1502 31.4599C12.1808 31.5133 12.2216 31.5602 12.2702 31.5979C12.3189 31.6356 12.3745 31.6633 12.4339 31.6795C12.4933 31.6956 12.5553 31.7 12.6164 31.6922ZM18.2191 40.2359C17.9845 40.0545 17.7525 39.8628 17.5297 39.6663C17.4835 39.6256 17.4298 39.5943 17.3715 39.5744C17.3133 39.5544 17.2517 39.5461 17.1903 39.55C17.1288 39.5538 17.0688 39.5697 17.0135 39.5968C16.9582 39.6239 16.9088 39.6616 16.8681 39.7077C16.8273 39.7539 16.7961 39.8076 16.7761 39.8658C16.7562 39.9241 16.7479 39.9857 16.7517 40.0471C16.7556 40.1085 16.7715 40.1686 16.7986 40.2239C16.8256 40.2792 16.8633 40.3286 16.9095 40.3693C17.1475 40.5793 17.3952 40.7839 17.6458 40.9776C17.7441 41.0536 17.8687 41.0875 17.992 41.0717C18.1153 41.0559 18.2273 40.9918 18.3033 40.8934C18.3794 40.7951 18.4132 40.6705 18.3974 40.5472C18.3816 40.4239 18.3175 40.3119 18.2191 40.2359ZM12.4403 28.9261C12.5018 28.9303 12.5634 28.9224 12.6218 28.9027C12.6801 28.883 12.734 28.8521 12.7804 28.8116C12.8268 28.771 12.8647 28.7218 12.892 28.6666C12.9193 28.6114 12.9354 28.5514 12.9395 28.4899C12.9594 28.1938 12.9895 27.8945 13.0289 27.6007C13.0454 27.4774 13.0122 27.3527 12.9368 27.2539C12.8613 27.1551 12.7497 27.0903 12.6265 27.0738C12.5032 27.0573 12.3785 27.0905 12.2797 27.1659C12.1809 27.2414 12.1161 27.353 12.0996 27.4762C12.0576 27.7905 12.0254 28.1103 12.0041 28.427C12 28.4884 12.008 28.55 12.0277 28.6083C12.0474 28.6667 12.0783 28.7205 12.1189 28.7669C12.1594 28.8132 12.2086 28.8512 12.2638 28.8785C12.3189 28.9058 12.3789 28.922 12.4403 28.9261ZM15.7045 37.7072C15.629 37.6084 15.5174 37.5437 15.3942 37.5273C15.271 37.5108 15.1464 37.5439 15.0476 37.6193C14.9488 37.6947 14.884 37.8063 14.8675 37.9294C14.8509 38.0526 14.8839 38.1773 14.9593 38.2761C15.1515 38.5279 15.3547 38.7767 15.5632 39.0156C15.6449 39.1093 15.7605 39.1666 15.8845 39.1751C16.0086 39.1835 16.1309 39.1423 16.2246 39.0606C16.3182 38.9788 16.3756 38.8632 16.384 38.7392C16.3925 38.6152 16.3513 38.4928 16.2696 38.3992C16.0745 38.1756 15.8843 37.9428 15.7045 37.7072ZM14.5909 21.915C14.5377 21.8841 14.479 21.8639 14.418 21.8556C14.357 21.8473 14.2949 21.8512 14.2354 21.8669C14.1759 21.8826 14.12 21.9099 14.0711 21.9472C14.0221 21.9845 13.9809 22.0311 13.95 22.0843C13.7903 22.3585 13.6376 22.6416 13.4962 22.9256C13.4686 22.9807 13.4521 23.0407 13.4477 23.1023C13.4433 23.1638 13.451 23.2256 13.4706 23.2841C13.4901 23.3426 13.5209 23.3967 13.5614 23.4432C13.6019 23.4898 13.6511 23.5279 13.7063 23.5554C13.7615 23.5829 13.8216 23.5992 13.8832 23.6034C13.9447 23.6076 14.0065 23.5997 14.0649 23.58C14.1234 23.5603 14.1773 23.5292 14.2238 23.4886C14.2702 23.448 14.3082 23.3987 14.3355 23.3434C14.4678 23.0776 14.6107 22.8126 14.7601 22.556C14.8227 22.4485 14.84 22.3207 14.8083 22.2005C14.7765 22.0803 14.6984 21.9776 14.5909 21.915ZM17.3449 19.234C17.4371 19.2222 17.5237 19.1832 17.5936 19.122C17.8168 18.927 18.0496 18.7367 18.2854 18.5563C18.3344 18.519 18.3756 18.4724 18.4066 18.4191C18.4376 18.3658 18.4578 18.3069 18.466 18.2458C18.4742 18.1847 18.4703 18.1226 18.4545 18.063C18.4387 18.0035 18.4112 17.9476 18.3738 17.8986C18.3363 17.8496 18.2896 17.8085 18.2362 17.7777C18.1829 17.7468 18.124 17.7267 18.0629 17.7187C18.0017 17.7106 17.9396 17.7146 17.8801 17.7306C17.8206 17.7466 17.7647 17.7741 17.7159 17.8117C17.4639 18.0043 17.2153 18.2076 16.9768 18.4159C16.9011 18.4821 16.8487 18.5708 16.8273 18.669C16.8058 18.7672 16.8165 18.8697 16.8577 18.9613C16.899 19.053 16.9686 19.129 17.0563 19.1781C17.144 19.2272 17.2452 19.2467 17.3449 19.234ZM24.8225 15.87L24.8494 15.8665C25.136 15.83 25.4268 15.8021 25.7136 15.7837C25.7236 15.783 25.7335 15.7821 25.7432 15.7808C25.864 15.7653 25.974 15.7035 26.0499 15.6083C26.1258 15.5131 26.1618 15.3922 26.1501 15.271C26.1384 15.1498 26.0801 15.0379 25.9874 14.959C25.8947 14.8801 25.7749 14.8403 25.6534 14.8481C25.3472 14.8678 25.0369 14.8976 24.7278 14.9369L24.704 14.94C24.5807 14.9557 24.4687 15.0198 24.3926 15.1181C24.3165 15.2164 24.2825 15.3409 24.2983 15.4643C24.314 15.5876 24.378 15.6996 24.4763 15.7757C24.5746 15.8518 24.6992 15.8857 24.8225 15.87ZM27.5007 15.7856C27.797 15.8054 28.0963 15.8352 28.3901 15.8743C28.5133 15.8907 28.638 15.8574 28.7367 15.7819C28.8354 15.7064 28.9 15.5947 28.9164 15.4715C28.9328 15.3483 28.8996 15.2236 28.8241 15.1249C28.7486 15.0262 28.637 14.9615 28.5138 14.945C28.1997 14.9032 27.8798 14.8713 27.5631 14.8502C27.4392 14.8422 27.3172 14.8836 27.2238 14.9655C27.1305 15.0473 27.0734 15.1629 27.0651 15.2867C27.0569 15.4106 27.0981 15.5327 27.1797 15.6262C27.2614 15.7198 27.3768 15.7771 27.5007 15.7856ZM22.1223 16.4903C22.153 16.4864 22.1833 16.4794 22.2127 16.4695C22.4939 16.3751 22.782 16.2888 23.069 16.2131C23.1891 16.1813 23.2918 16.1031 23.3543 15.9957C23.4168 15.8882 23.4341 15.7603 23.4024 15.6401C23.3706 15.52 23.2924 15.4173 23.185 15.3548C23.0776 15.2922 22.9497 15.2749 22.8295 15.3066C22.5228 15.3877 22.2149 15.4799 21.9144 15.5808C21.8041 15.6178 21.7116 15.6945 21.6547 15.7959C21.5978 15.8973 21.5807 16.0163 21.6066 16.1297C21.6325 16.243 21.6996 16.3427 21.7949 16.4094C21.8902 16.476 22.0069 16.5048 22.1223 16.4903ZM19.5979 17.6258C19.6593 17.618 19.7184 17.5981 19.772 17.5672C20.0291 17.4194 20.2943 17.2786 20.5599 17.1483C20.6152 17.1213 20.6646 17.0836 20.7054 17.0374C20.7461 16.9912 20.7773 16.9375 20.7972 16.8792C20.8172 16.821 20.8255 16.7594 20.8216 16.6979C20.8177 16.6365 20.8018 16.5764 20.7747 16.5211C20.7476 16.4659 20.7099 16.4164 20.6637 16.3757C20.6175 16.335 20.5638 16.3038 20.5055 16.2839C20.4473 16.264 20.3857 16.2557 20.3242 16.2596C20.2628 16.2635 20.2027 16.2794 20.1474 16.3065C19.8634 16.4457 19.5799 16.5963 19.305 16.7542C19.211 16.8082 19.1387 16.8931 19.1002 16.9945C19.0618 17.0958 19.0597 17.2073 19.0942 17.3101C19.1287 17.4128 19.1978 17.5004 19.2896 17.558C19.3815 17.6155 19.4904 17.6395 19.5979 17.6258ZM20.4889 41.66C20.2232 41.5275 19.9584 41.3845 19.7017 41.2348C19.5943 41.1722 19.4664 41.1548 19.3462 41.1865C19.226 41.2182 19.1233 41.2963 19.0606 41.4037C18.998 41.5111 18.9806 41.639 19.0123 41.7592C19.044 41.8794 19.1221 41.9821 19.2295 42.0448C19.5038 42.2046 19.7867 42.3574 20.0705 42.499C20.1818 42.5545 20.3105 42.5635 20.4284 42.5241C20.5463 42.4846 20.6437 42.4 20.6992 42.2887C20.7547 42.1774 20.7637 42.0487 20.7243 41.9308C20.6848 41.8129 20.6002 41.7155 20.4889 41.66ZM12.8072 26.1776C12.8666 26.1938 12.9286 26.1981 12.9897 26.1903C13.0508 26.1825 13.1097 26.1627 13.1631 26.1321C13.2166 26.1015 13.2634 26.0606 13.301 26.0119C13.3387 25.9632 13.3663 25.9075 13.3824 25.848C13.4601 25.5614 13.5485 25.2735 13.6451 24.9925C13.6653 24.9342 13.6738 24.8725 13.6701 24.811C13.6664 24.7494 13.6506 24.6892 13.6236 24.6337C13.5966 24.5783 13.5589 24.5287 13.5127 24.4879C13.4666 24.447 13.4128 24.4157 13.3544 24.3956C13.2961 24.3756 13.2344 24.3673 13.1729 24.3711C13.1113 24.375 13.0511 24.391 12.9958 24.4181C12.9404 24.4453 12.8909 24.4831 12.8502 24.5294C12.8095 24.5757 12.7783 24.6296 12.7584 24.688C12.6552 24.9884 12.5607 25.2961 12.4776 25.6025C12.4615 25.6619 12.4572 25.7239 12.465 25.7849C12.4729 25.846 12.4927 25.9049 12.5233 25.9583C12.5539 26.0117 12.5947 26.0586 12.6434 26.0962C12.6921 26.1338 12.7478 26.1615 12.8072 26.1776ZM15.1007 21.1574C15.1991 21.2334 15.3237 21.2671 15.447 21.2513C15.5703 21.2354 15.6822 21.1712 15.7582 21.0727C15.9396 20.8377 16.1311 20.6056 16.3273 20.383C16.3681 20.3368 16.3994 20.2831 16.4194 20.2248C16.4394 20.1665 16.4477 20.1049 16.4438 20.0434C16.44 19.9819 16.4241 19.9218 16.397 19.8665C16.3699 19.8112 16.3321 19.7618 16.2859 19.721C16.2397 19.6803 16.1859 19.6491 16.1276 19.6292C16.0694 19.6092 16.0077 19.601 15.9462 19.6049C15.8848 19.6088 15.8247 19.6248 15.7694 19.652C15.7141 19.6791 15.6647 19.7169 15.624 19.7632C15.4144 20.0009 15.2099 20.2488 15.016 20.4999C14.9401 20.5984 14.9063 20.7229 14.9222 20.8462C14.9381 20.9695 15.0023 21.0815 15.1007 21.1574ZM40.7118 29.938C40.6503 29.9338 40.5887 29.9417 40.5304 29.9613C40.472 29.981 40.4181 30.0119 40.3717 30.0523C40.3253 30.0928 40.2873 30.142 40.2599 30.1971C40.2325 30.2522 40.2163 30.3122 40.2121 30.3736C40.1917 30.6694 40.1613 30.9687 40.1216 31.2628C40.1133 31.3238 40.1171 31.3859 40.1328 31.4455C40.1485 31.505 40.1757 31.5609 40.213 31.6099C40.2503 31.6589 40.2969 31.7001 40.3502 31.7311C40.4034 31.7621 40.4622 31.7823 40.5233 31.7906C40.5843 31.7988 40.6464 31.7949 40.7059 31.7792C40.7655 31.7634 40.8213 31.7361 40.8703 31.6987C40.9193 31.6614 40.9604 31.6147 40.9914 31.5615C41.0223 31.5082 41.0425 31.4494 41.0506 31.3883C41.0931 31.0739 41.1257 30.754 41.1473 30.4377C41.1515 30.3763 41.1436 30.3146 41.124 30.2563C41.1044 30.1979 41.0735 30.144 41.033 30.0976C40.9926 30.0512 40.9434 30.0133 40.8883 29.9859C40.8332 29.9585 40.7732 29.9422 40.7118 29.938ZM39.4382 35.3084C39.327 35.2529 39.1983 35.2438 39.0804 35.2831C38.9625 35.3225 38.865 35.4071 38.8094 35.5183C38.6768 35.7839 38.5336 36.0486 38.3838 36.3052C38.3216 36.4126 38.3045 36.5402 38.3362 36.6601C38.3679 36.78 38.4459 36.8825 38.553 36.945C38.6602 37.0076 38.7877 37.0251 38.9077 36.9938C39.0278 36.9624 39.1305 36.8848 39.1934 36.7779C39.3534 36.5038 39.5064 36.2209 39.6481 35.9372C39.7037 35.826 39.7128 35.6973 39.6734 35.5793C39.6341 35.4614 39.5495 35.364 39.4382 35.3084ZM41.0627 27.5765L41.0581 27.5405C41.0421 27.4174 40.9779 27.3057 40.8797 27.2299C40.7814 27.154 40.6571 27.1202 40.534 27.1359C40.4107 27.1519 40.2976 27.2164 40.2218 27.3149C40.146 27.4134 40.1123 27.538 40.1284 27.6613L40.1329 27.6961C40.1705 27.9912 40.1989 28.2908 40.2173 28.5864C40.2211 28.6478 40.237 28.7079 40.2641 28.7632C40.2911 28.8185 40.3288 28.8679 40.3749 28.9087C40.4211 28.9494 40.4748 28.9807 40.533 29.0006C40.5913 29.0206 40.6529 29.0289 40.7143 29.0251C40.7246 29.0245 40.7347 29.0235 40.7448 29.0222C40.8629 29.007 40.9707 28.9476 41.0465 28.8558C41.1223 28.764 41.1604 28.6469 41.153 28.5281C41.1333 28.2124 41.103 27.8926 41.0627 27.5765ZM40.3414 32.686C40.282 32.6698 40.22 32.6654 40.1589 32.6732C40.0978 32.6809 40.0389 32.7006 39.9854 32.7312C39.932 32.7617 39.885 32.8025 39.8474 32.8512C39.8097 32.8999 39.7819 32.9555 39.7658 33.0149C39.6875 33.3018 39.5987 33.5895 39.5019 33.8701C39.4817 33.9283 39.4731 33.99 39.4767 34.0515C39.4803 34.1131 39.496 34.1733 39.5229 34.2288C39.5499 34.2843 39.5875 34.3339 39.6336 34.3748C39.6797 34.4157 39.7335 34.4471 39.7918 34.4672C39.8501 34.4873 39.9118 34.4958 39.9733 34.492C40.0349 34.4882 40.095 34.4723 40.1505 34.4453C40.2059 34.4182 40.2554 34.3805 40.2962 34.3342C40.337 34.288 40.3682 34.2341 40.3882 34.1758C40.4916 33.8759 40.5866 33.5683 40.6702 33.2616C40.6864 33.2022 40.6908 33.1402 40.683 33.0792C40.6752 33.0181 40.6555 32.9592 40.625 32.9057C40.5945 32.8523 40.5537 32.8054 40.505 32.7677C40.4564 32.73 40.4008 32.7022 40.3414 32.686ZM37.065 12C35.2263 12.0021 33.4636 12.7334 32.1635 14.0335C30.8634 15.3336 30.132 17.0964 30.13 18.935C30.13 18.9394 30.1301 18.9437 30.1301 18.9481C28.9943 18.5634 27.803 18.3679 26.6037 18.3694C20.5232 18.3694 15.5762 23.316 15.5762 29.3963C15.5762 35.4769 20.5232 40.4238 26.6037 40.4238C32.684 40.4238 37.6306 35.4769 37.6306 29.3963C37.6321 28.197 37.4366 27.0057 37.0518 25.8698C37.0562 25.8699 37.0606 25.87 37.065 25.87C37.9757 25.87 38.8775 25.6906 39.7189 25.3421C40.5603 24.9936 41.3248 24.4828 41.9688 23.8388C42.6127 23.1948 43.1236 22.4303 43.4721 21.5889C43.8206 20.7475 44 19.8457 44 18.935C44 18.0243 43.8206 17.1225 43.4721 16.2811C43.1236 15.4397 42.6127 14.6752 41.9688 14.0312C41.3248 13.3872 40.5603 12.8764 39.7189 12.5279C38.8775 12.1794 37.9757 12 37.065 12ZM26.6037 39.4863C21.0401 39.4863 16.5137 34.9599 16.5137 29.3962C16.5137 23.833 21.0401 19.3069 26.6037 19.3069C27.8357 19.305 29.0575 19.5306 30.2076 19.9723C30.4315 21.4357 31.1167 22.7895 32.1636 23.8364C33.2105 24.8832 34.5642 25.5685 36.0277 25.7924C36.4694 26.9425 36.695 28.1642 36.6931 29.3962C36.6931 34.9599 32.167 39.4863 26.6037 39.4863ZM37.065 24.9325C35.8788 24.9325 34.7192 24.5808 33.733 23.9217C32.7467 23.2627 31.978 22.326 31.524 21.2301C31.0701 20.1342 30.9513 18.9283 31.1827 17.7649C31.4141 16.6015 31.9853 15.5329 32.8241 14.6941C33.6629 13.8554 34.7315 13.2841 35.8949 13.0527C37.0583 12.8213 38.2642 12.9401 39.3601 13.394C40.456 13.848 41.3927 14.6167 42.0517 15.603C42.7107 16.5893 43.0625 17.7488 43.0625 18.935C43.0607 20.5251 42.4282 22.0495 41.3039 23.1739C40.1795 24.2982 38.6551 24.9307 37.065 24.9325ZM39.1587 17.6365V16.0288H39.7212C39.7828 16.0288 39.8437 16.0166 39.9006 15.9931C39.9575 15.9695 40.0092 15.935 40.0527 15.8915C40.0962 15.8479 40.1307 15.7963 40.1543 15.7394C40.1779 15.6825 40.19 15.6216 40.19 15.56C40.19 15.4984 40.1779 15.4375 40.1543 15.3806C40.1307 15.3237 40.0962 15.2721 40.0527 15.2285C40.0092 15.185 39.9575 15.1505 39.9006 15.1269C39.8437 15.1034 39.7828 15.0913 39.7212 15.0913H34.4087C34.2844 15.0913 34.1652 15.1406 34.0773 15.2285C33.9894 15.3165 33.94 15.4357 33.94 15.56C33.94 15.6843 33.9894 15.8036 34.0773 15.8915C34.1652 15.9794 34.2844 16.0288 34.4087 16.0288H34.9712V17.6365C34.9715 17.8285 35.0222 18.0171 35.1183 18.1833C35.2143 18.3496 35.3523 18.4877 35.5184 18.5839L36.127 18.935L35.5185 19.2861C35.3523 19.3823 35.2143 19.5204 35.1183 19.6867C35.0222 19.8529 34.9715 20.0415 34.9712 20.2335V21.8413H34.4087C34.2844 21.8413 34.1652 21.8906 34.0773 21.9785C33.9894 22.0665 33.94 22.1857 33.94 22.31C33.94 22.4343 33.9894 22.5536 34.0773 22.6415C34.1652 22.7294 34.2844 22.7788 34.4087 22.7788H39.7212C39.8456 22.7788 39.9648 22.7294 40.0527 22.6415C40.1406 22.5536 40.19 22.4343 40.19 22.31C40.19 22.1857 40.1406 22.0665 40.0527 21.9785C39.9648 21.8906 39.8456 21.8413 39.7212 21.8413H39.1587V20.2335C39.1585 20.0415 39.1078 19.8529 39.0117 19.6867C38.9157 19.5204 38.7777 19.3823 38.6116 19.2861L38.003 18.935L38.6116 18.5839C38.7777 18.4877 38.9157 18.3496 39.0117 18.1833C39.1077 18.0171 39.1584 17.8285 39.1587 17.6365ZM38.1431 20.0981C38.1668 20.1119 38.1866 20.1317 38.2003 20.1554C38.214 20.1791 38.2212 20.2061 38.2212 20.2335V21.8413H35.9087V20.2335C35.9088 20.206 35.916 20.1791 35.9297 20.1554C35.9435 20.1316 35.9632 20.1119 35.9869 20.0982L37.065 19.4762L38.1431 20.0981ZM38.2212 17.6365C38.2212 17.664 38.214 17.6909 38.2002 17.7147C38.1865 17.7384 38.1668 17.7582 38.1431 17.7719L37.065 18.3939L35.9869 17.7719C35.9632 17.7582 35.9435 17.7384 35.9298 17.7147C35.916 17.6909 35.9088 17.664 35.9087 17.6365V16.0288H38.2212V17.6365ZM33.3656 41.2876C33.1082 41.435 32.8429 41.5756 32.5771 41.7054C32.5217 41.7324 32.4723 41.77 32.4315 41.8161C32.3907 41.8622 32.3594 41.916 32.3393 41.9742C32.3193 42.0324 32.311 42.094 32.3147 42.1555C32.3185 42.2169 32.3344 42.2771 32.3614 42.3324C32.3884 42.3877 32.4261 42.4372 32.4722 42.478C32.5184 42.5187 32.5721 42.55 32.6304 42.57C32.6886 42.59 32.7502 42.5984 32.8117 42.5945C32.8731 42.5907 32.9332 42.5749 32.9885 42.5478C33.2727 42.409 33.5563 42.2587 33.8315 42.1011C33.8849 42.0705 33.9319 42.0297 33.9695 41.981C34.0072 41.9323 34.0349 41.8767 34.0511 41.8172C34.0673 41.7578 34.0715 41.6958 34.0637 41.6347C34.0559 41.5737 34.0362 41.5147 34.0056 41.4613C33.975 41.4078 33.9341 41.361 33.8854 41.3233C33.8367 41.2857 33.781 41.258 33.7216 41.2419C33.6622 41.2257 33.6001 41.2215 33.5391 41.2293C33.478 41.2372 33.4191 41.257 33.3656 41.2876ZM28.3123 42.9784L28.3033 42.9795C28.0114 43.0167 27.7147 43.045 27.4216 43.0635C27.3602 43.0674 27.3001 43.0833 27.2448 43.1104C27.1895 43.1375 27.1402 43.1752 27.0995 43.2214C27.0588 43.2676 27.0276 43.3213 27.0076 43.3795C26.9877 43.4378 26.9794 43.4994 26.9833 43.5608C26.9872 43.6222 27.0031 43.6823 27.0302 43.7376C27.0573 43.7928 27.095 43.8422 27.1412 43.8829C27.1874 43.9236 27.2411 43.9548 27.2994 43.9748C27.3576 43.9947 27.4192 44.0029 27.4807 43.9991C27.7936 43.9793 28.1102 43.9492 28.4218 43.9095L28.4308 43.9084C28.4918 43.9006 28.5508 43.8808 28.6042 43.8503C28.6576 43.8197 28.7045 43.779 28.7422 43.7303C28.7799 43.6816 28.8076 43.626 28.8238 43.5666C28.84 43.5072 28.8443 43.4452 28.8365 43.3841C28.8287 43.3231 28.809 43.2641 28.7785 43.2107C28.7479 43.1573 28.7071 43.1104 28.6584 43.0727C28.6098 43.035 28.5541 43.0073 28.4947 42.9911C28.4354 42.9749 28.3734 42.9706 28.3123 42.9784ZM38.0415 37.7034C37.9432 37.6274 37.8186 37.5935 37.6953 37.6092C37.572 37.6249 37.46 37.6889 37.3839 37.7872C37.2022 38.0219 37.0105 38.2537 36.8138 38.4763C36.7731 38.5225 36.7418 38.5762 36.7218 38.6344C36.7018 38.6926 36.6935 38.7542 36.6973 38.8156C36.7011 38.8771 36.7169 38.9372 36.744 38.9925C36.771 39.0478 36.8087 39.0972 36.8548 39.138C36.9009 39.1787 36.9546 39.21 37.0128 39.23C37.0711 39.25 37.1326 39.2583 37.1941 39.2545C37.2555 39.2507 37.3156 39.2348 37.3709 39.2078C37.4262 39.1808 37.4757 39.1431 37.5164 39.097C37.7264 38.8593 37.9313 38.6117 38.1253 38.3611C38.1629 38.3124 38.1907 38.2568 38.2068 38.1974C38.223 38.138 38.2274 38.076 38.2196 38.0149C38.2118 37.9538 38.1921 37.8949 38.1615 37.8415C38.1309 37.788 38.0902 37.7411 38.0415 37.7034ZM30.9234 42.3822C30.6427 42.476 30.3545 42.5619 30.0668 42.6375C29.9517 42.6678 29.8525 42.7407 29.7891 42.8414C29.7258 42.9421 29.7032 43.0632 29.7258 43.18C29.7484 43.2968 29.8146 43.4007 29.9109 43.4705C30.0073 43.5403 30.1266 43.5709 30.2446 43.556C30.265 43.5534 30.2852 43.5495 30.3051 43.5443C30.6125 43.4634 30.9206 43.3716 31.2207 43.2713C31.279 43.2518 31.333 43.2209 31.3795 43.1806C31.4259 43.1402 31.464 43.0911 31.4915 43.036C31.519 42.9809 31.5353 42.9209 31.5396 42.8595C31.544 42.7981 31.5361 42.7365 31.5166 42.6781C31.4971 42.6197 31.4663 42.5658 31.4259 42.5193C31.3855 42.4728 31.3364 42.4348 31.2813 42.4073C31.2262 42.3798 31.1663 42.3634 31.1049 42.3591C31.0435 42.3548 30.9818 42.3626 30.9234 42.3822ZM25.6346 43.0593C25.3389 43.0392 25.0397 43.0089 24.7453 42.9694C24.6843 42.9612 24.6222 42.9651 24.5627 42.9809C24.5032 42.9967 24.4474 43.024 24.3985 43.0613C24.3496 43.0987 24.3085 43.1453 24.2775 43.1985C24.2466 43.2517 24.2265 43.3105 24.2183 43.3715C24.2101 43.4325 24.214 43.4946 24.2298 43.5541C24.2455 43.6136 24.2729 43.6694 24.3102 43.7183C24.3475 43.7672 24.3942 43.8083 24.4474 43.8393C24.5006 43.8702 24.5594 43.8903 24.6204 43.8985C24.9351 43.9408 25.255 43.9732 25.571 43.9946C25.6325 43.9988 25.6941 43.9908 25.7524 43.9712C25.8108 43.9515 25.8647 43.9206 25.911 43.8801C25.9574 43.8396 25.9954 43.7904 26.0227 43.7353C26.0501 43.6801 26.0663 43.6201 26.0705 43.5587C26.0747 43.4973 26.0667 43.4357 26.047 43.3773C26.0274 43.319 25.9964 43.2651 25.956 43.2187C25.9155 43.1723 25.8663 43.1344 25.8111 43.107C25.756 43.0797 25.696 43.0635 25.6346 43.0593ZM35.5458 39.7355C35.3222 39.9305 35.0893 40.1204 34.8534 40.3002C34.7546 40.3756 34.6897 40.4872 34.6731 40.6104C34.6565 40.7336 34.6895 40.8584 34.7649 40.9572C34.8403 41.0561 34.9519 41.121 35.0751 41.1376C35.1983 41.1542 35.3231 41.1211 35.4219 41.0458C35.6739 40.8536 35.9228 40.6506 36.1618 40.4423C36.2082 40.4019 36.2462 40.3527 36.2736 40.2975C36.301 40.2424 36.3173 40.1824 36.3215 40.121C36.3257 40.0596 36.3178 39.998 36.2982 39.9396C36.2786 39.8813 36.2477 39.8273 36.2072 39.7809C36.1668 39.7345 36.1176 39.6965 36.0625 39.6691C36.0073 39.6418 35.9473 39.6255 35.8859 39.6213C35.8245 39.6171 35.7629 39.625 35.7045 39.6446C35.6462 39.6642 35.5922 39.6951 35.5458 39.7355ZM22.9929 42.6148C22.7061 42.5367 22.4183 42.4481 22.1376 42.3515C22.0794 42.3314 22.0178 42.323 21.9564 42.3267C21.8949 42.3305 21.8348 42.3463 21.7794 42.3733C21.7241 42.4002 21.6746 42.4379 21.6338 42.484C21.593 42.5301 21.5617 42.5838 21.5416 42.642C21.5216 42.7002 21.5132 42.7618 21.5169 42.8233C21.5207 42.8847 21.5365 42.9448 21.5635 43.0002C21.5905 43.0555 21.6282 43.105 21.6743 43.1458C21.7204 43.1865 21.7742 43.2178 21.8324 43.2379C22.1325 43.3412 22.4401 43.4359 22.7468 43.5193C22.8062 43.5355 22.8682 43.5398 22.9293 43.532C22.9903 43.5242 23.0493 43.5045 23.1027 43.4739C23.1561 43.4433 23.203 43.4025 23.2407 43.3539C23.2783 43.3052 23.3061 43.2495 23.3222 43.1901C23.3384 43.1307 23.3427 43.0687 23.3349 43.0077C23.3271 42.9466 23.3073 42.8877 23.2767 42.8342C23.2462 42.7808 23.2054 42.7339 23.1567 42.6963C23.108 42.6586 23.0523 42.6309 22.9929 42.6148Z" fill="#E2B93B"/>
<path d="M30.4 31.888C30.4 30.192 28.5288 29.536 26.915 29.216V25.552C28.0996 25.68 29.0781 26.272 29.3013 26.992C29.37 27.184 29.5588 27.328 29.782 27.328C30.1253 27.328 30.3829 27.008 30.2799 26.704C29.9022 25.6 28.5631 24.736 26.8979 24.592V22.88C26.8979 22.608 26.6747 22.4 26.3829 22.4C26.091 22.4 25.8678 22.608 25.8678 22.88V24.576C23.9279 24.752 22.4 25.92 22.4 27.312C22.4 29.008 24.2713 29.664 25.885 29.984V33.648C24.7005 33.52 23.7219 32.928 23.4987 32.208C23.4301 32.016 23.2412 31.872 23.018 31.872C22.6747 31.872 22.4172 32.192 22.5202 32.496C22.8979 33.6 24.2369 34.464 25.9022 34.608V36.32C25.9022 36.592 26.1253 36.8 26.4172 36.8C26.709 36.8 26.9322 36.592 26.9322 36.32V34.624C28.8721 34.448 30.4 33.28 30.4 31.888ZM23.4301 27.312C23.4301 26.448 24.5116 25.696 25.885 25.536V28.992C23.7391 28.528 23.4301 27.856 23.4301 27.312ZM26.915 33.648V30.192C29.061 30.672 29.37 31.344 29.37 31.872C29.37 32.752 28.2884 33.504 26.915 33.648Z" fill="#E2B93B"/>
</svg>
