<svg width="40" height="32" viewBox="0 0 40 32" fill="none" xmlns="http://www.w3.org/2000/svg">
<rect x="0.5" y="0.5" width="39" height="31" rx="3.5" fill="white"/>
<rect x="0.5" y="0.5" width="39" height="31" rx="3.5" stroke="#E8E8E8"/>
<g clip-path="url(#clip0_1_210)">
<path d="M19.3333 20H20.6667C21.0333 20 21.3333 19.7 21.3333 19.3333C21.3333 18.9667 21.0333 18.6667 20.6667 18.6667H19.3333C18.9667 18.6667 18.6667 18.9667 18.6667 19.3333C18.6667 19.7 18.9667 20 19.3333 20ZM14 12.6667C14 13.0333 14.3 13.3333 14.6667 13.3333H25.3333C25.7 13.3333 26 13.0333 26 12.6667C26 12.3 25.7 12 25.3333 12H14.6667C14.3 12 14 12.3 14 12.6667ZM16.6667 16.6667H23.3333C23.7 16.6667 24 16.3667 24 16C24 15.6333 23.7 15.3333 23.3333 15.3333H16.6667C16.3 15.3333 16 15.6333 16 16C16 16.3667 16.3 16.6667 16.6667 16.6667Z" fill="#010101"/>
</g>
<defs>
<clipPath id="clip0_1_210">
<rect width="16" height="16" fill="white" transform="translate(12 8)"/>
</clipPath>
</defs>
</svg>
