<svg width="56" height="56" viewBox="0 0 56 56" fill="none" xmlns="http://www.w3.org/2000/svg">
<rect width="56" height="56" rx="28" fill="#2F80ED" fill-opacity="0.15"/>
<path d="M21.1721 16.8132C21.2339 16.8131 21.2951 16.8009 21.3522 16.777C21.6257 16.663 21.9064 16.5567 22.1867 16.4611C22.2449 16.4412 22.2987 16.41 22.3449 16.3693C22.3911 16.3287 22.4289 16.2793 22.456 16.224C22.4832 16.1688 22.4991 16.1087 22.5031 16.0472C22.507 15.9858 22.4988 15.9242 22.4789 15.8659C22.459 15.8076 22.4279 15.7538 22.3872 15.7076C22.3466 15.6614 22.2972 15.6236 22.2419 15.5965C22.1867 15.5693 22.1266 15.5533 22.0652 15.5494C22.0038 15.5455 21.9422 15.5537 21.8839 15.5735C21.5842 15.6758 21.2841 15.7895 20.9916 15.9113C20.8916 15.9531 20.8091 16.0282 20.7581 16.1239C20.7072 16.2196 20.691 16.33 20.7123 16.4363C20.7336 16.5426 20.791 16.6382 20.8748 16.7069C20.9586 16.7756 21.0637 16.8132 21.1721 16.8132ZM18.7339 18.1241C18.8268 18.1241 18.9177 18.0964 18.9948 18.0445C19.2411 17.879 19.496 17.7196 19.7524 17.5707C19.8057 17.5398 19.8524 17.4987 19.8898 17.4498C19.9272 17.4008 19.9546 17.345 19.9704 17.2855C19.9862 17.2259 19.9902 17.1638 19.982 17.1028C19.9738 17.0417 19.9537 16.9829 19.9228 16.9296C19.8918 16.8763 19.8507 16.8296 19.8018 16.7923C19.7528 16.7549 19.697 16.7275 19.6374 16.7118C19.5779 16.696 19.5158 16.6921 19.4548 16.7003C19.3937 16.7086 19.3349 16.7287 19.2817 16.7597C19.0077 16.9188 18.7354 17.0891 18.4722 17.2659C18.3887 17.322 18.3255 17.4034 18.2918 17.4981C18.2582 17.5928 18.2558 17.6959 18.2851 17.792C18.3145 17.8882 18.3739 17.9724 18.4547 18.0322C18.5355 18.092 18.6334 18.1242 18.7339 18.1241ZM16.5956 19.8858C16.6573 19.8859 16.7183 19.8737 16.7753 19.8501C16.8322 19.8264 16.8839 19.7918 16.9274 19.748C17.1371 19.5378 17.3564 19.3317 17.5793 19.1355C17.6724 19.0533 17.7291 18.9375 17.7369 18.8135C17.7447 18.6895 17.703 18.5675 17.621 18.4742C17.5389 18.381 17.4232 18.3241 17.2993 18.3161C17.1753 18.3081 17.0533 18.3496 16.9599 18.4316C16.7219 18.6411 16.4877 18.8612 16.2637 19.0858C16.1983 19.1514 16.1537 19.2349 16.1357 19.3258C16.1178 19.4168 16.1271 19.511 16.1626 19.5966C16.1981 19.6822 16.2582 19.7554 16.3353 19.8069C16.4123 19.8583 16.5029 19.8858 16.5956 19.8858ZM23.8198 16.0056C23.8508 16.0056 23.8817 16.0025 23.9121 15.9964C24.2028 15.9383 24.4995 15.8891 24.7938 15.8502C24.9171 15.8339 25.0288 15.7693 25.1045 15.6707C25.1801 15.572 25.2134 15.4472 25.1971 15.324C25.1809 15.2007 25.1163 15.0889 25.0176 15.0133C24.9189 14.9376 24.7943 14.9042 24.671 14.9205C24.3564 14.9621 24.0393 15.0147 23.7285 15.0768C23.6144 15.0996 23.5129 15.164 23.4437 15.2574C23.3745 15.3509 23.3424 15.4668 23.3538 15.5825C23.3652 15.6983 23.4192 15.8057 23.5053 15.8839C23.5914 15.9621 23.7035 16.0054 23.8198 16.0056ZM26.5766 15.7315H26.5782L26.6035 15.7315C26.8927 15.7315 27.1849 15.7406 27.4719 15.7586C27.4819 15.7592 27.4918 15.7595 27.5017 15.7595C27.6235 15.7594 27.7404 15.7119 27.8277 15.6271C27.9151 15.5423 27.9661 15.4268 27.9698 15.3051C27.9736 15.1834 27.9298 15.065 27.8479 14.9749C27.7659 14.8849 27.6521 14.8303 27.5306 14.8227C27.2241 14.8034 26.9122 14.7937 26.6035 14.7937L26.5751 14.7937C26.4508 14.7939 26.3316 14.8435 26.2438 14.9316C26.1561 15.0197 26.1069 15.139 26.1071 15.2634C26.1073 15.3877 26.1569 15.5069 26.2449 15.5947C26.333 15.6825 26.4523 15.7317 26.5766 15.7315ZM14.5791 21.9509C14.6303 21.9851 14.6877 22.0089 14.7481 22.0209C14.8085 22.0329 14.8707 22.0328 14.931 22.0208C14.9914 22.0088 15.0488 21.9849 15.1 21.9507C15.1512 21.9165 15.1951 21.8725 15.2292 21.8212C15.3942 21.574 15.5694 21.3292 15.7499 21.0936C15.8256 20.9949 15.8589 20.8702 15.8426 20.7469C15.8264 20.6237 15.7618 20.5119 15.6631 20.4362C15.5645 20.3606 15.4398 20.3272 15.3165 20.3435C15.1933 20.3598 15.0816 20.4244 15.0059 20.5231C14.813 20.7748 14.6258 21.0364 14.4495 21.3006C14.3805 21.404 14.3553 21.5306 14.3797 21.6526C14.404 21.7745 14.4757 21.8818 14.5791 21.9509ZM44 18.9369C44.0002 17.4084 43.4956 15.9226 42.5647 14.7105C41.6337 13.4983 40.3285 12.6277 38.852 12.234C37.3754 11.8403 35.8102 11.9455 34.3996 12.5333C32.989 13.1211 31.812 14.1585 31.0515 15.4844C30.6733 15.3636 30.2896 15.2579 29.9063 15.1692C29.8463 15.1553 29.7842 15.1533 29.7234 15.1634C29.6626 15.1735 29.6045 15.1955 29.5522 15.228C29.4999 15.2606 29.4546 15.3032 29.4188 15.3534C29.383 15.4035 29.3574 15.4602 29.3435 15.5202C29.3296 15.5802 29.3277 15.6424 29.3379 15.7032C29.348 15.7639 29.37 15.8221 29.4027 15.8744C29.4353 15.9266 29.4779 15.9719 29.5281 16.0077C29.5782 16.0434 29.6349 16.069 29.6949 16.0828C30.0095 16.1556 30.3241 16.2417 30.6355 16.3378C30.3008 17.1634 30.1292 18.046 30.13 18.9369C30.13 18.9413 30.1301 18.9457 30.1301 18.9501C28.9943 18.5652 27.803 18.3696 26.6038 18.3712C20.5232 18.3712 15.5763 23.3192 15.5763 29.4011C15.5763 35.4835 20.5232 40.4317 26.6038 40.4317C32.684 40.4317 37.6306 35.4835 37.6306 29.4011C37.6321 28.2016 37.4366 27.0099 37.0519 25.8737C37.0563 25.8737 37.0606 25.8739 37.065 25.8739C37.9561 25.8747 38.8389 25.7028 39.6646 25.3677C40.2153 27.1535 40.3942 29.0332 40.1902 30.8908C39.9862 32.7484 39.4036 34.5445 38.4785 36.1681C37.5534 37.7917 36.3053 39.2083 34.8115 40.3306C33.3176 41.4528 31.6096 42.2568 29.7929 42.6929C27.9762 43.129 26.0894 43.1879 24.2491 42.8661C22.4087 42.5443 20.6539 41.8485 19.0929 40.8217C17.5319 39.7949 16.1979 38.4589 15.1733 36.8962C14.1487 35.3335 13.4552 33.5773 13.1357 31.7361C13.1253 31.6753 13.1031 31.6172 13.0702 31.5651C13.0374 31.513 12.9946 31.4679 12.9443 31.4323C12.894 31.3967 12.8372 31.3714 12.7771 31.3578C12.7171 31.3442 12.6549 31.3426 12.5942 31.353C12.5335 31.3635 12.4754 31.3858 12.4234 31.4187C12.3713 31.4516 12.3262 31.4945 12.2907 31.5448C12.2552 31.5951 12.2299 31.652 12.2164 31.7121C12.2029 31.7722 12.2013 31.8344 12.2118 31.8951C12.555 33.8679 13.3 35.749 14.4005 37.4217C15.501 39.0944 16.9335 40.523 18.6091 41.6187C20.2847 42.7144 22.1676 43.4539 24.1408 43.7912C26.1141 44.1285 28.1356 44.0565 30.0798 43.5796C32.0241 43.1027 33.8496 42.231 35.443 41.0188C37.0364 39.8066 38.3636 38.2797 39.3423 36.5329C40.321 34.7861 40.9303 32.8567 41.1323 30.8645C41.3343 28.8723 41.1248 26.8599 40.5166 24.9521C41.5747 24.3442 42.4538 23.4682 43.0653 22.4121C43.6769 21.356 43.9993 20.1574 44 18.9369ZM26.6038 39.494C21.0401 39.494 16.5138 34.9663 16.5138 29.4011C16.5138 23.8363 21.0401 19.3089 26.6038 19.3089C27.8358 19.307 29.0575 19.5327 30.2076 19.9745C30.4315 21.4384 31.1168 22.7925 32.1636 23.8397C33.2105 24.8868 34.5643 25.5723 36.0278 25.7963C36.4694 26.9467 36.695 28.1688 36.6931 29.4011C36.6931 34.9663 32.1671 39.494 26.6038 39.494ZM37.065 24.9361C35.8788 24.9361 34.7193 24.5843 33.733 23.9251C32.7467 23.2659 31.978 22.3289 31.524 21.2327C31.0701 20.1365 30.9513 18.9303 31.1827 17.7666C31.4142 16.6028 31.9854 15.5339 32.8241 14.6949C33.6629 13.8559 34.7315 13.2845 35.8949 13.053C37.0583 12.8216 38.2642 12.9404 39.3601 13.3944C40.456 13.8485 41.3927 14.6174 42.0517 15.604C42.7108 16.5905 43.0625 17.7504 43.0625 18.9369C43.0607 20.5275 42.4282 22.0523 41.3039 23.177C40.1795 24.3017 38.6551 24.9343 37.065 24.9361ZM12.9376 29.4193L12.9375 29.4013C12.9375 29.1099 12.9468 28.8148 12.9651 28.5244C12.9729 28.4003 12.9311 28.2783 12.8489 28.185C12.7667 28.0918 12.6508 28.0351 12.5268 28.0272C12.4028 28.0194 12.2808 28.0611 12.1875 28.1433C12.0942 28.2254 12.0374 28.3412 12.0295 28.4653C12.0099 28.7753 12 29.0903 12 29.4062L12.0001 29.4193C12.0001 29.5436 12.0494 29.6629 12.1374 29.7508C12.2253 29.8387 12.3445 29.8881 12.4688 29.8881C12.5931 29.8881 12.7124 29.8387 12.8003 29.7508C12.8882 29.6629 12.9376 29.5436 12.9376 29.4193ZM13.355 24.4404C13.4119 24.464 13.4728 24.4761 13.5344 24.4761C13.596 24.476 13.6569 24.4639 13.7138 24.4402C13.7707 24.4166 13.8223 24.382 13.8658 24.3384C13.9093 24.2948 13.9437 24.243 13.9672 24.1861C14.0806 23.9114 14.2047 23.637 14.3359 23.3703C14.3905 23.2588 14.3987 23.1302 14.3586 23.0127C14.3185 22.8951 14.2334 22.7983 14.122 22.7435C14.0107 22.6886 13.8821 22.6802 13.7645 22.72C13.6469 22.7599 13.55 22.8448 13.4949 22.956C13.3546 23.2411 13.2219 23.5344 13.1007 23.828C13.0772 23.8849 13.0651 23.9459 13.0652 24.0075C13.0652 24.0691 13.0774 24.13 13.101 24.1869C13.1246 24.2438 13.1592 24.2954 13.2028 24.3389C13.2464 24.3824 13.2981 24.4169 13.355 24.4404ZM12.6436 27.1213C12.704 27.1332 12.7662 27.1332 12.8266 27.121C12.8869 27.1089 12.9443 27.085 12.9954 27.0506C13.0466 27.0163 13.0904 26.9722 13.1245 26.9209C13.1585 26.8696 13.1821 26.812 13.1939 26.7516C13.251 26.4607 13.3187 26.1675 13.395 25.8803C13.4269 25.7601 13.4097 25.6322 13.3474 25.5246C13.285 25.4171 13.1824 25.3387 13.0622 25.3068C12.9421 25.2749 12.8142 25.292 12.7066 25.3544C12.5991 25.4168 12.5207 25.5194 12.4888 25.6396C12.4074 25.9465 12.335 26.2599 12.274 26.5709C12.25 26.6929 12.2755 26.8194 12.3448 26.9227C12.4142 27.0259 12.5216 27.0973 12.6436 27.1213Z" fill="#2F80ED"/>
<path d="M30.4 31.888C30.4 30.192 28.5288 29.536 26.915 29.216V25.552C28.0996 25.68 29.0781 26.272 29.3013 26.992C29.37 27.184 29.5588 27.328 29.782 27.328C30.1253 27.328 30.3829 27.008 30.2799 26.704C29.9022 25.6 28.5631 24.736 26.8979 24.592V22.88C26.8979 22.608 26.6747 22.4 26.3829 22.4C26.091 22.4 25.8678 22.608 25.8678 22.88V24.576C23.9279 24.752 22.4 25.92 22.4 27.312C22.4 29.008 24.2713 29.664 25.885 29.984V33.648C24.7005 33.52 23.7219 32.928 23.4987 32.208C23.4301 32.016 23.2412 31.872 23.018 31.872C22.6747 31.872 22.4172 32.192 22.5202 32.496C22.8979 33.6 24.2369 34.464 25.9022 34.608V36.32C25.9022 36.592 26.1253 36.8 26.4172 36.8C26.709 36.8 26.9322 36.592 26.9322 36.32V34.624C28.8721 34.448 30.4 33.28 30.4 31.888ZM23.4301 27.312C23.4301 26.448 24.5116 25.696 25.885 25.536V28.992C23.7391 28.528 23.4301 27.856 23.4301 27.312ZM26.915 33.648V30.192C29.061 30.672 29.37 31.344 29.37 31.872C29.37 32.752 28.2884 33.504 26.915 33.648Z" fill="#2F80ED"/>
<path d="M36.5969 16.9673L35.8924 17.672C35.8489 17.7157 35.7972 17.7503 35.7403 17.7739C35.6834 17.7975 35.6224 17.8097 35.5608 17.8097C35.4992 17.8098 35.4382 17.7976 35.3813 17.7741C35.3243 17.7505 35.2726 17.7159 35.2291 17.6724C35.1855 17.6288 35.151 17.5771 35.1274 17.5201C35.1039 17.4632 35.0918 17.4022 35.0918 17.3406C35.0918 17.2789 35.104 17.2179 35.1276 17.161C35.1512 17.1041 35.1859 17.0524 35.2295 17.0089L36.7081 15.5298C36.7521 15.4778 36.8068 15.436 36.8686 15.4073C36.9303 15.3786 36.9976 15.3638 37.0656 15.3638C37.1337 15.3638 37.201 15.3786 37.2627 15.4073C37.3245 15.436 37.3792 15.4778 37.4232 15.5298L38.9019 17.0089C38.9896 17.0969 39.0389 17.2161 39.0388 17.3403C39.0388 17.4646 38.9894 17.5838 38.9015 17.6717C38.8137 17.7595 38.6946 17.8089 38.5703 17.809C38.4461 17.8091 38.3269 17.7598 38.239 17.672L37.5344 16.9673L37.5344 22.0412C37.5344 22.1655 37.485 22.2848 37.3971 22.3727C37.3092 22.4607 37.19 22.5101 37.0656 22.5101C36.9413 22.5101 36.8221 22.4607 36.7342 22.3727C36.6463 22.2848 36.5969 22.1655 36.5969 22.0412L36.5969 16.9673Z" fill="#2F80ED"/>
</svg>
