<svg width="78" height="36" viewBox="0 0 78 36" fill="none" xmlns="http://www.w3.org/2000/svg">
<path d="M36.3493 0.16086C36.7115 0.111387 37.2004 0.048422 37.4358 0.0259344C37.6713 0.00344692 38.4862 -0.00554809 39.2467 0.00344692C40.3106 0.0169394 40.786 0.039427 41.3066 0.111387C41.6824 0.16086 42.1985 0.246312 42.4611 0.295785C42.7237 0.349755 43.1809 0.453197 43.4797 0.525158C43.7785 0.601615 44.3308 0.763525 44.7021 0.884958C45.0778 1.01089 45.603 1.20428 45.8792 1.31672C46.1553 1.42466 46.7348 1.69901 47.1694 1.91489C47.604 2.13526 48.2152 2.47258 48.5276 2.66597C48.84 2.85936 49.2791 3.1472 49.501 3.30911C49.7228 3.47102 50.1031 3.75437 50.3385 3.94326C50.5739 4.12766 51.0131 4.50545 51.3119 4.7753C51.6061 5.04515 52.0905 5.53088 52.3848 5.8502C52.6791 6.16953 53.0911 6.65976 53.3038 6.92961C53.5166 7.19946 53.8698 7.68968 54.0871 8.0135C54.3044 8.33732 54.6122 8.83655 55.0695 9.6461L78 9.6506L75.8948 12.3266L66.0571 12.3356C60.6516 12.3446 56.2239 12.3536 56.2239 12.3581C56.2239 12.3671 56.2647 12.493 56.3145 12.6414C56.3688 12.7899 56.4775 13.1766 56.5589 13.496C56.645 13.8153 56.7219 14.1346 56.7672 14.328H65.5274C70.3444 14.328 74.2831 14.346 74.2786 14.364C74.2695 14.3865 73.8078 14.9801 72.2278 16.986L57.1294 16.9815V19.0054L70.6251 19.0279L68.5607 21.6589H56.7672L56.7264 21.8253C56.7038 21.9198 56.6585 22.1087 56.6314 22.2436C56.5997 22.3785 56.5091 22.7159 56.4231 22.9857C56.3416 23.2556 56.2647 23.5164 56.2511 23.5569C56.2239 23.6333 56.5001 23.6378 61.5887 23.6378C65.1517 23.6378 66.949 23.6513 66.9445 23.6828C66.9354 23.7098 66.4736 24.3125 64.8936 26.3318L55.0695 26.3363L54.8929 26.6647C54.7978 26.8401 54.5579 27.2403 54.3678 27.5507C54.1731 27.861 53.8018 28.3962 53.5393 28.7425C53.2812 29.0888 52.9055 29.5521 52.7108 29.7769C52.5161 30.0018 52.1811 30.3616 51.9683 30.582C51.7555 30.7979 51.3617 31.1757 51.0855 31.4185C50.8093 31.6569 50.3838 32.0122 50.1348 32.2101C49.8858 32.4035 49.4693 32.7093 49.2067 32.8847C48.9441 33.0601 48.5185 33.33 48.256 33.4874C47.9934 33.6448 47.4456 33.9371 47.0336 34.144C46.6216 34.3464 46.0014 34.6252 45.6528 34.7602C45.3042 34.8951 44.7881 35.0795 44.5074 35.1694C44.2312 35.2594 43.7197 35.4033 43.3801 35.4888C43.036 35.5742 42.5199 35.6822 42.2347 35.7316C41.9495 35.7856 41.4606 35.8576 41.1482 35.898C40.8132 35.9385 40.0797 35.979 39.3373 35.9925C38.3956 36.0105 37.9112 35.997 37.3453 35.943C36.9333 35.907 36.2814 35.8216 35.8966 35.7541C35.5118 35.6912 34.9096 35.5652 34.561 35.4798C34.2124 35.3943 33.5786 35.2054 33.1576 35.0615C32.7365 34.9176 32.1435 34.6927 31.8447 34.5668C31.5459 34.4408 31.0162 34.189 30.6676 34.0091C30.319 33.8292 29.744 33.5009 29.3864 33.2805C29.0287 33.0601 28.5081 32.7093 28.2229 32.4979C27.9377 32.2865 27.4895 31.9312 27.2178 31.7019C26.9507 31.477 26.421 30.9823 26.0498 30.6C25.674 30.2222 25.1941 29.7005 24.9768 29.4396C24.7641 29.1788 24.429 28.7425 24.2344 28.4727C24.0352 28.2028 23.7318 27.7441 23.5553 27.4607C23.3787 27.1774 23.1569 26.8086 22.9034 26.3363L13.1019 26.3408L12.0742 25.0321C11.5037 24.317 11.042 23.7053 11.042 23.6828C11.042 23.6513 12.8529 23.6378 16.3841 23.6378C19.3223 23.6378 21.7263 23.6288 21.7263 23.6154C21.7263 23.6019 21.6357 23.2825 21.5316 22.9047C21.4229 22.5315 21.3052 22.0952 21.2056 21.6589L9.39857 21.6364L7.32962 19.0054H20.8661L20.8435 17.004L5.72697 16.959L3.6716 14.3505L21.2056 14.328L21.2871 13.9817C21.3324 13.7883 21.4501 13.352 21.5497 13.0102L21.5725 12.9292C21.6575 12.628 21.7263 12.384 21.7263 12.3716C21.7263 12.3581 17.3122 12.3491 2.10064 12.3491L0 9.67308L22.9034 9.6506L23.2022 9.12439C23.3651 8.83205 23.6911 8.31034 23.922 7.96403C24.1529 7.61772 24.5649 7.06003 24.8365 6.72722C25.1036 6.3944 25.6197 5.81872 25.9819 5.44993C26.3441 5.08113 26.8647 4.5909 27.1363 4.35703C27.408 4.12316 27.8607 3.76336 28.1323 3.55648C28.404 3.34959 28.8929 3.01678 29.2189 2.80989C29.5448 2.603 30.0836 2.28818 30.4186 2.10828C30.7536 1.92838 31.3331 1.64504 31.7089 1.48313C32.0801 1.31672 32.8045 1.04687 33.316 0.880461C33.8276 0.709555 34.5701 0.498173 34.9685 0.41272C35.3669 0.327267 35.9871 0.210332 36.3493 0.16086Z" fill="#D9D9D9"/>
<path d="M36.7339 2.43192C37.0056 2.39144 37.4356 2.34197 37.6846 2.31948C37.9336 2.297 38.6263 2.288 39.2239 2.297C39.8396 2.30599 40.5549 2.34647 40.8764 2.38245C41.1887 2.42293 41.655 2.49489 41.9176 2.54886C42.1802 2.59833 42.556 2.67928 42.7552 2.72876C42.9544 2.77823 43.3618 2.89067 43.6606 2.98062C43.9594 3.06607 44.4665 3.24597 44.7924 3.3764C45.1184 3.50682 45.6164 3.7227 45.9016 3.86213C46.1868 4.00155 46.6079 4.21743 46.8297 4.34786C47.0515 4.47379 47.4726 4.73464 47.7578 4.91904C48.043 5.10794 48.5319 5.46324 48.8443 5.7106C49.1567 5.95796 49.6637 6.40322 49.9716 6.70455C50.2795 7.00139 50.7095 7.44664 50.9223 7.694C51.1396 7.94136 51.4656 8.34614 51.6557 8.5935C51.8459 8.84087 52.1537 9.28612 52.3484 9.58295C52.5386 9.87979 52.9098 10.5499 53.1678 11.0671C53.4259 11.5843 53.7202 12.241 53.8198 12.5198C53.9239 12.7942 54.0869 13.3024 54.1865 13.6397C54.2861 13.9815 54.4309 14.5527 54.5034 14.9125C54.5758 15.2723 54.6709 15.857 54.7116 16.2168C54.7705 16.671 54.7931 17.2107 54.7931 17.9933C54.7931 18.7849 54.7705 19.3111 54.7116 19.7698C54.6709 20.1296 54.5849 20.6738 54.526 20.9841C54.4626 21.2945 54.3359 21.8297 54.2363 22.176C54.1367 22.5223 53.9873 23.008 53.8967 23.2554C53.8107 23.5027 53.6704 23.867 53.5844 24.0649C53.4983 24.2628 53.3399 24.6046 53.2312 24.8295C53.1271 25.0544 52.9143 25.4457 52.7694 25.7065C52.62 25.9674 52.3439 26.4126 52.1537 26.696C51.9636 26.9793 51.6059 27.465 51.3615 27.7754C51.117 28.0857 50.5647 28.6839 50.1391 29.1066C49.7135 29.5294 49.1431 30.0511 48.8669 30.267C48.5908 30.4829 48.1154 30.8292 47.8031 31.0361C47.4907 31.2429 47.0017 31.5443 46.7165 31.7062C46.4313 31.8681 45.9333 32.12 45.6073 32.2684C45.2814 32.4168 44.7743 32.6237 44.4755 32.7361C44.1767 32.8486 43.6787 33.0105 43.3663 33.0959C43.054 33.1814 42.6148 33.2938 42.393 33.3478C42.1711 33.3972 41.723 33.4827 41.397 33.5322C41.071 33.5816 40.5006 33.6446 40.1294 33.6716C39.731 33.7031 39.0745 33.7121 38.5448 33.6986C38.0468 33.6851 37.3858 33.6401 37.0735 33.5996C36.7611 33.5592 36.254 33.4782 35.9417 33.4197C35.6293 33.3568 35.0905 33.2308 34.7419 33.1319C34.3933 33.0329 33.9632 32.9025 33.7912 32.8441C33.6192 32.7856 33.2479 32.6417 32.9763 32.5337C32.7047 32.4213 32.2248 32.2009 31.9124 32.048C31.6 31.8951 31.1428 31.6432 30.8938 31.4948C30.6448 31.3464 30.2464 31.0945 30.011 30.9281C29.7755 30.7662 29.3273 30.4289 29.015 30.1815C28.7026 29.9342 28.1819 29.4709 27.8605 29.1471C27.5345 28.8278 27.118 28.3825 26.9279 28.1577C26.7378 27.9328 26.4254 27.537 26.2262 27.2716C26.0315 27.0063 25.7372 26.5835 25.5788 26.3272C25.4158 26.0708 25.1487 25.6031 24.9812 25.2792C24.8091 24.9554 24.5783 24.4832 24.4651 24.2223C24.3474 23.9615 24.1527 23.4578 24.0259 23.098C23.9037 22.7382 23.7271 22.131 23.6275 21.7487C23.5325 21.3664 23.4148 20.7907 23.365 20.4669C23.3106 20.1431 23.2472 19.6484 23.2201 19.365C23.1974 19.0817 23.1748 18.4655 23.1748 17.9933C23.1748 17.5211 23.1974 16.9049 23.2201 16.6215C23.2472 16.3382 23.3197 15.803 23.3785 15.4297C23.4419 15.0609 23.5641 14.4807 23.6502 14.1479C23.7362 13.8151 23.8946 13.2889 23.9942 12.9786C24.0984 12.6682 24.2749 12.205 24.3836 11.9441C24.4968 11.6833 24.7095 11.229 24.8589 10.9322C25.0129 10.6354 25.2573 10.1901 25.4067 9.94275C25.5561 9.69539 25.8097 9.29961 25.9772 9.06574C26.1402 8.83187 26.4706 8.39561 26.7106 8.09878C26.9505 7.80194 27.3897 7.31621 27.6839 7.01488C27.9827 6.71355 28.4038 6.31327 28.6301 6.11988C28.8565 5.92648 29.273 5.59816 29.5582 5.38228C29.8434 5.1709 30.355 4.82909 30.69 4.62221C31.0251 4.41532 31.6045 4.096 31.9803 3.9116C32.3515 3.7272 32.9129 3.47534 33.2253 3.35391C33.5377 3.23248 34.0674 3.05258 34.4024 2.95363C34.7374 2.85019 35.2897 2.71077 35.6247 2.63881C35.9598 2.56235 36.4623 2.4724 36.7339 2.43192Z" fill="#010101"/>
<path d="M37.5038 5.4276C37.7528 5.40062 38.0289 5.37363 38.115 5.36464C38.201 5.35564 38.5496 5.34665 38.8846 5.34215C39.2196 5.33765 39.7402 5.35564 40.039 5.38263C40.3378 5.40512 40.8177 5.46808 41.1029 5.51755C41.3882 5.56703 41.859 5.66597 42.1442 5.73793C42.4294 5.80989 42.9048 5.94931 43.1991 6.04826C43.4888 6.1517 43.937 6.3271 44.1905 6.43954C44.4486 6.55198 44.8606 6.75886 45.1096 6.89379C45.3586 7.02871 45.7841 7.28957 46.0603 7.46947C46.3364 7.65387 46.7303 7.93721 46.9431 8.10812C47.1559 8.27452 47.6131 8.69279 47.9663 9.0436C48.3194 9.3899 48.7585 9.86664 48.9441 10.1005C49.1343 10.3344 49.4376 10.7526 49.6187 11.0225C49.8043 11.2968 50.1122 11.8231 50.3023 12.1919C50.4925 12.5651 50.7415 13.1003 50.8546 13.3837C50.9678 13.667 51.1263 14.1438 51.2123 14.4406C51.2983 14.7374 51.4115 15.1827 51.4658 15.4301C51.5156 15.6774 51.5881 16.1137 51.6243 16.397C51.6605 16.6804 51.7058 17.1886 51.7193 17.5214C51.7375 17.8632 51.7284 18.4209 51.7012 18.8032C51.6741 19.172 51.6107 19.7207 51.5609 20.0175C51.5156 20.3143 51.4024 20.8316 51.3164 21.1644C51.2304 21.4972 51.0719 22.0144 50.9678 22.3112C50.8592 22.6081 50.5966 23.2062 50.3793 23.638C50.162 24.0698 49.827 24.6589 49.6368 24.9423C49.4467 25.2256 49.1343 25.6529 48.9487 25.8868C48.7585 26.1206 48.2967 26.6199 47.921 26.9886C47.5452 27.3619 47.0019 27.8387 46.7167 28.0546C46.4315 28.2659 45.9924 28.5673 45.7434 28.7247C45.4944 28.8821 45.0462 29.1295 44.7474 29.2824C44.4486 29.4353 43.9823 29.6467 43.7061 29.7501C43.4299 29.8581 42.9863 30.0155 42.7101 30.0964C42.434 30.1819 41.9269 30.3078 41.5783 30.3798C41.2297 30.4517 40.7317 30.5372 40.4691 30.5732C40.1794 30.6091 39.5637 30.6316 38.9072 30.6271C38.0289 30.6226 37.6939 30.6046 37.1642 30.5237C36.8021 30.4697 36.1999 30.3438 35.8287 30.2493C35.4529 30.1549 34.887 29.9795 34.5611 29.8626C34.2351 29.7456 33.6466 29.4848 33.2482 29.2824C32.8498 29.0845 32.3427 28.8011 32.1164 28.6572C31.89 28.5088 31.5459 28.2704 31.3467 28.122C31.1475 27.9736 30.8306 27.7172 30.645 27.5598C30.4594 27.3979 30.1063 27.0651 29.8573 26.8132C29.6128 26.5614 29.2642 26.1746 29.0831 25.9542C28.8975 25.7293 28.576 25.2886 28.3587 24.9648C28.1414 24.6409 27.7838 24.0158 27.5665 23.5705C27.3446 23.1253 27.073 22.5001 26.9643 22.1763C26.8512 21.8525 26.6972 21.3308 26.6157 21.007C26.5388 20.6831 26.4301 20.1614 26.3803 19.8376C26.3305 19.5003 26.2807 18.8796 26.2671 18.3759C26.249 17.8272 26.2626 17.2785 26.2943 16.9142C26.326 16.5904 26.3894 16.0957 26.4392 15.8123C26.489 15.529 26.5886 15.0703 26.661 14.8004C26.7335 14.5261 26.8738 14.0628 26.9779 13.766C27.082 13.4691 27.3356 12.88 27.5438 12.4617C27.7521 12.0389 28.0373 11.5127 28.1776 11.2923C28.318 11.0675 28.576 10.6942 28.7526 10.4603C28.9337 10.2264 29.2642 9.82167 29.4951 9.56081C29.726 9.29996 30.0791 8.93566 30.2873 8.75126C30.4911 8.56686 30.7853 8.3105 30.9347 8.18907C31.0887 8.06314 31.3829 7.83827 31.5957 7.68985C31.8085 7.53693 32.1888 7.28957 32.4468 7.13665C32.7004 6.98374 33.1078 6.76336 33.3478 6.64193C33.5922 6.5205 34.0269 6.3316 34.3121 6.21916C34.5973 6.10673 35.0772 5.94482 35.376 5.85936C35.6748 5.77391 36.1728 5.65248 36.4851 5.58951C36.7975 5.52655 37.2548 5.45459 37.5038 5.4276Z" fill="#75EF42"/>
<path d="M38.3866 12.979V12.2144V11.4498H39.8398L39.8579 12.997L40.1975 13.0554C40.3831 13.0869 40.7 13.1589 40.8992 13.2218C41.0984 13.2848 41.4062 13.3972 41.5783 13.4737C41.7503 13.5547 42.04 13.7076 42.2121 13.82C42.3841 13.9325 42.6376 14.1124 42.7644 14.2203C42.8957 14.3282 43.0044 14.4407 43.0044 14.4632C43.0044 14.4856 42.7418 14.8814 42.4158 15.3402C42.0898 15.7989 41.8182 16.1722 41.8046 16.1722C41.791 16.1722 41.696 16.0958 41.5873 16.0013C41.4787 15.9114 41.2478 15.7494 41.0757 15.646C40.9037 15.5426 40.6094 15.3986 40.4238 15.3222C40.2382 15.2502 40.0299 15.1783 39.8353 15.1378L39.8579 17.4045L40.0164 17.4495C40.1024 17.472 40.3876 17.5619 40.6502 17.6429C40.9128 17.7283 41.3202 17.8993 41.5556 18.0207C41.791 18.1421 42.0989 18.3265 42.2347 18.439C42.3705 18.5469 42.5697 18.7448 42.6739 18.8752C42.778 19.0101 42.9138 19.217 42.9772 19.343C43.0406 19.4644 43.1311 19.7297 43.1854 19.9276C43.2488 20.1705 43.276 20.4269 43.276 20.7237C43.276 20.9666 43.2443 21.3219 43.2035 21.5107C43.1628 21.7041 43.0813 21.983 43.0225 22.1314C42.9591 22.2798 42.8459 22.5002 42.7644 22.6261C42.6874 22.7476 42.5199 22.9589 42.3932 23.0939C42.2709 23.2243 42.0536 23.4087 41.9178 23.5031C41.782 23.5931 41.5647 23.7235 41.4424 23.782C41.3157 23.845 41.0531 23.9484 40.8539 24.0114C40.6547 24.0698 40.3423 24.1463 39.8353 24.2227V25.7069H38.3866V24.2227L38.1692 24.1958C38.0515 24.1823 37.8025 24.1373 37.6169 24.1013C37.4313 24.0653 37.1235 23.9844 36.9378 23.9214C36.7522 23.8629 36.4353 23.7325 36.2361 23.6381C36.0369 23.5391 35.7291 23.3637 35.557 23.2423C35.385 23.1209 35.1224 22.9185 34.9775 22.7925C34.8372 22.6621 34.7195 22.5362 34.7195 22.5137C34.7195 22.4912 34.9821 22.0729 35.8966 20.7147L36.1999 20.9935C36.3719 21.1465 36.6526 21.3623 36.8247 21.4748C36.9967 21.5872 37.2683 21.7311 37.4223 21.8031C37.5807 21.8706 37.8433 21.9695 38.0108 22.0145C38.1828 22.0639 38.3368 22.0909 38.3549 22.0729C38.373 22.0549 38.3866 21.4793 38.3866 19.5453L38.1964 19.5004C38.0878 19.4734 37.8071 19.3879 37.5716 19.3115C37.3362 19.2395 36.9378 19.0731 36.6888 18.9472C36.3267 18.7628 36.1637 18.6413 35.8694 18.3535C35.5842 18.0747 35.4665 17.9172 35.3397 17.6564C35.2492 17.472 35.145 17.1617 35.1088 16.9728C35.0681 16.7794 35.0364 16.469 35.0364 16.2846C35.0364 16.1003 35.0681 15.7989 35.1088 15.6235C35.145 15.4436 35.222 15.1963 35.2718 15.0703C35.3261 14.9489 35.4529 14.715 35.557 14.5531C35.6612 14.3912 35.8694 14.1483 36.0143 14.0089C36.1591 13.8695 36.4036 13.6806 36.553 13.5861C36.7024 13.4917 36.9469 13.3613 37.0963 13.3028C37.2457 13.2398 37.4902 13.1589 37.6396 13.1139C37.789 13.0734 38.0198 13.024 38.3866 12.979Z" fill="#010101"/>
<path d="M37.7209 15.2862C37.8024 15.2277 37.9472 15.1513 38.0468 15.1153C38.1464 15.0793 38.2642 15.0523 38.3094 15.0478C38.3819 15.0478 38.3864 15.1243 38.3864 16.0148C38.3864 16.5455 38.3728 16.9907 38.3547 16.9997C38.3321 17.0087 38.1872 16.9593 38.0242 16.8828C37.8612 16.8108 37.662 16.7029 37.5851 16.6399C37.499 16.5815 37.404 16.4465 37.3632 16.3431C37.3149 16.2142 37.2998 16.0822 37.318 15.9473C37.3315 15.8349 37.3949 15.664 37.4628 15.565C37.5262 15.4661 37.6394 15.3402 37.7209 15.2862Z" fill="#75EF42"/>
<path d="M39.8351 22.1089V21.0295C39.8351 20.3414 39.8532 19.9501 39.8804 19.9501C39.9075 19.9501 40.0524 19.9996 40.2109 20.0625C40.3648 20.121 40.5821 20.2514 40.6908 20.3414C40.7994 20.4358 40.9171 20.5663 40.9488 20.6337C40.985 20.7057 41.0122 20.8586 41.0122 20.9845C41.0122 21.106 40.9805 21.2859 40.9398 21.3758C40.9035 21.4703 40.8085 21.6142 40.727 21.6996C40.6455 21.7806 40.4599 21.9065 40.3105 21.9785C40.1611 22.0504 39.9936 22.1089 39.8351 22.1089Z" fill="#75EF42"/>
</svg>
