<svg width="32" height="32" viewBox="0 0 32 32" fill="none" xmlns="http://www.w3.org/2000/svg">
<g id="Group 1000001544">
<path id="Vector" d="M9.17206 4.81318C9.2339 4.81315 9.29512 4.80085 9.35218 4.77701C9.62568 4.66302 9.90644 4.55673 10.1867 4.46106C10.2449 4.44118 10.2987 4.41001 10.3449 4.36934C10.3911 4.32867 10.4289 4.27929 10.456 4.22402C10.4832 4.16876 10.4991 4.10869 10.5031 4.04724C10.507 3.98579 10.4988 3.92417 10.4789 3.86589C10.459 3.80762 10.4279 3.75383 10.3872 3.7076C10.3466 3.66137 10.2972 3.6236 10.2419 3.59646C10.1867 3.56931 10.1266 3.55331 10.0652 3.54938C10.0038 3.54545 9.94217 3.55366 9.88392 3.57354C9.58423 3.67584 9.28406 3.78949 8.99158 3.91135C8.89155 3.95307 8.80906 4.02817 8.75814 4.12387C8.70722 4.21957 8.69102 4.32996 8.71229 4.43626C8.73357 4.54256 8.791 4.6382 8.87482 4.70692C8.95865 4.77564 9.06368 4.81319 9.17206 4.81318ZM6.73389 6.12413C6.82684 6.12414 6.91767 6.0964 6.99475 6.04445C7.24109 5.879 7.49604 5.71962 7.75238 5.57069C7.80568 5.5398 7.85236 5.49871 7.88977 5.44977C7.92718 5.40083 7.95458 5.34499 7.97041 5.28545C7.98623 5.22591 7.99017 5.16383 7.982 5.10277C7.97382 5.04171 7.9537 4.98285 7.92277 4.92957C7.89185 4.87629 7.85073 4.82963 7.80176 4.79226C7.7528 4.75488 7.69695 4.72753 7.63742 4.71175C7.57788 4.69598 7.51581 4.6921 7.45478 4.70033C7.39374 4.70856 7.33492 4.72875 7.28168 4.75973C7.00769 4.91883 6.73536 5.08913 6.47217 5.26591C6.38873 5.32197 6.32551 5.40336 6.29184 5.49808C6.25816 5.59281 6.25582 5.69585 6.28514 5.79202C6.31447 5.88818 6.37391 5.97237 6.45471 6.03217C6.53551 6.09196 6.63338 6.1242 6.73389 6.12413ZM4.59558 7.88579C4.65725 7.88587 4.71832 7.87374 4.77528 7.85009C4.83223 7.82645 4.88395 7.79176 4.92743 7.74802C5.13715 7.53779 5.35645 7.33171 5.57929 7.13555C5.6724 7.05333 5.72909 6.93751 5.7369 6.81352C5.74472 6.68953 5.70302 6.5675 5.62096 6.47424C5.53891 6.38098 5.42321 6.3241 5.29926 6.3161C5.17532 6.30809 5.05326 6.34962 4.9599 6.43156C4.72193 6.64109 4.48767 6.86121 4.26374 7.08576C4.19829 7.15138 4.15375 7.23492 4.13575 7.32585C4.11775 7.41677 4.1271 7.511 4.16261 7.59661C4.19812 7.68222 4.2582 7.75539 4.33527 7.80686C4.41233 7.85833 4.50292 7.88579 4.59558 7.88579ZM11.8198 4.00558C11.8508 4.00556 11.8817 4.00249 11.9121 3.99642C12.2028 3.93833 12.4995 3.88912 12.7938 3.85023C12.9171 3.83394 13.0288 3.76935 13.1045 3.67065C13.1801 3.57196 13.2134 3.44725 13.1971 3.32396C13.1809 3.20068 13.1163 3.08891 13.0176 3.01325C12.9189 2.93759 12.7943 2.90424 12.671 2.92053C12.3564 2.96214 12.0393 3.0147 11.7285 3.07679C11.6144 3.0996 11.5129 3.16398 11.4437 3.25744C11.3745 3.3509 11.3424 3.46676 11.3538 3.58253C11.3652 3.6983 11.4192 3.8057 11.5053 3.88388C11.5914 3.96206 11.7035 4.00543 11.8198 4.00558ZM14.5766 3.73149H14.5782L14.6035 3.73145C14.8927 3.73145 15.1849 3.74058 15.4719 3.75859C15.4819 3.7592 15.4918 3.75954 15.5017 3.75954C15.6235 3.75943 15.7404 3.71194 15.8277 3.62713C15.9151 3.54232 15.9661 3.42684 15.9698 3.30512C15.9736 3.1834 15.9298 3.06499 15.8479 2.97495C15.7659 2.88491 15.6521 2.83029 15.5306 2.82266C15.2241 2.80343 14.9122 2.79369 14.6035 2.79369L14.5751 2.79372C14.4508 2.79393 14.3316 2.84352 14.2438 2.93159C14.1561 3.01967 14.1069 3.13901 14.1071 3.26337C14.1073 3.38772 14.1569 3.5069 14.2449 3.59469C14.333 3.68248 14.4523 3.73169 14.5766 3.73149ZM2.5791 9.95088C2.6303 9.98509 2.68773 10.0089 2.74811 10.0209C2.8085 10.0329 2.87065 10.0328 2.93103 10.0208C2.99141 10.0088 3.04882 9.98495 3.09999 9.9507C3.15116 9.91646 3.19508 9.87247 3.22925 9.82124C3.39423 9.57401 3.5694 9.32919 3.74994 9.09362C3.82557 8.99493 3.85892 8.87022 3.84264 8.74694C3.82635 8.62366 3.76178 8.51189 3.66312 8.43624C3.56445 8.36058 3.43978 8.32722 3.31654 8.34351C3.19329 8.3598 3.08156 8.42439 3.00592 8.52308C2.81299 8.77483 2.62579 9.03641 2.44946 9.30058C2.38045 9.40402 2.35534 9.53063 2.37965 9.65259C2.40397 9.77454 2.47571 9.88184 2.5791 9.95088ZM32 6.93695C32.0002 5.4084 31.4956 3.9226 30.5647 2.71046C29.6337 1.49832 28.3285 0.627737 26.852 0.234027C25.3754 -0.159682 23.8102 -0.0544692 22.3996 0.533314C20.989 1.1211 19.812 2.15853 19.0515 3.48436C18.6733 3.36359 18.2896 3.25793 17.9063 3.16923C17.8463 3.15528 17.7842 3.15329 17.7234 3.16339C17.6626 3.17348 17.6045 3.19545 17.5522 3.22805C17.4999 3.26064 17.4546 3.30322 17.4188 3.35335C17.383 3.40348 17.3574 3.46018 17.3435 3.52021C17.3296 3.58023 17.3277 3.6424 17.3379 3.70317C17.348 3.76394 17.37 3.82211 17.4027 3.87436C17.4353 3.92661 17.4779 3.97191 17.5281 4.00768C17.5782 4.04345 17.6349 4.06898 17.6949 4.08281C18.0095 4.15563 18.3241 4.24175 18.6355 4.3378C18.3008 5.1634 18.1292 6.04604 18.13 6.93695C18.13 6.94133 18.1301 6.94568 18.1301 6.95006C16.9943 6.56521 15.803 6.36965 14.6038 6.37118C8.52319 6.37118 3.57626 11.3192 3.57626 17.4011C3.57626 23.4835 8.52319 28.4317 14.6038 28.4317C20.684 28.4317 25.6306 23.4835 25.6306 17.4011C25.6321 16.2016 25.4366 15.0099 25.0519 13.8737C25.0563 13.8737 25.0606 13.8739 25.065 13.8739C25.9561 13.8747 26.8389 13.7028 27.6646 13.3677C28.2153 15.1535 28.3942 17.0332 28.1902 18.8908C27.9862 20.7484 27.4036 22.5445 26.4785 24.1681C25.5534 25.7917 24.3053 27.2083 22.8115 28.3306C21.3176 29.4528 19.6096 30.2568 17.7929 30.6929C15.9762 31.129 14.0894 31.1879 12.2491 30.8661C10.4087 30.5443 8.65387 29.8485 7.09288 28.8217C5.53189 27.7949 4.1979 26.4589 3.1733 24.8962C2.14869 23.3335 1.45522 21.5773 1.13571 19.7361C1.12533 19.6753 1.10308 19.6172 1.07024 19.5651C1.0374 19.513 0.994608 19.4679 0.944315 19.4323C0.894022 19.3967 0.837213 19.3714 0.777135 19.3578C0.717058 19.3442 0.65489 19.3426 0.594186 19.353C0.533482 19.3635 0.475432 19.3858 0.423355 19.4187C0.371278 19.4516 0.326196 19.4945 0.290685 19.5448C0.255174 19.5951 0.229931 19.652 0.216399 19.7121C0.202867 19.7722 0.201312 19.8344 0.211822 19.8951C0.555046 21.8679 1.30003 23.749 2.40053 25.4217C3.50103 27.0944 4.93353 28.523 6.60911 29.6187C8.28469 30.7144 10.1676 31.4539 12.1408 31.7912C14.1141 32.1285 16.1356 32.0565 18.0798 31.5796C20.0241 31.1027 21.8496 30.231 23.443 29.0188C25.0364 27.8066 26.3636 26.2797 27.3423 24.5329C28.321 22.7861 28.9303 20.8567 29.1323 18.8645C29.3343 16.8723 29.1248 14.8599 28.5166 12.9521C29.5747 12.3442 30.4538 11.4682 31.0653 10.4121C31.6769 9.35605 31.9993 8.15738 32 6.93695ZM14.6038 27.494C9.04013 27.494 4.51376 22.9663 4.51376 17.4011C4.51376 11.8363 9.04013 7.30894 14.6038 7.30894C15.8358 7.30702 17.0575 7.53266 18.2076 7.9745C18.4315 9.43838 19.1168 10.7925 20.1636 11.8397C21.2105 12.8868 22.5643 13.5723 24.0278 13.7963C24.4694 14.9467 24.695 16.1688 24.6931 17.4011C24.6931 22.9663 20.1671 27.494 14.6038 27.494ZM25.065 12.9361C23.8788 12.9361 22.7193 12.5843 21.733 11.9251C20.7467 11.2659 19.978 10.3289 19.524 9.23273C19.0701 8.13652 18.9513 6.93029 19.1827 5.76656C19.4142 4.60283 19.9854 3.53388 20.8241 2.69488C21.6629 1.85588 22.7315 1.28451 23.8949 1.05303C25.0583 0.821553 26.2642 0.940357 27.3601 1.39442C28.456 1.84849 29.3927 2.61742 30.0517 3.60398C30.7108 4.59054 31.0625 5.75042 31.0625 6.93695C31.0607 8.52747 30.4282 10.0523 29.3039 11.177C28.1795 12.3017 26.6551 12.9343 25.065 12.9361ZM0.937563 17.4193L0.9375 17.4013C0.9375 17.1099 0.946778 16.8148 0.965149 16.5244C0.972885 16.4003 0.931062 16.2783 0.848871 16.185C0.766681 16.0918 0.650848 16.0351 0.526833 16.0272C0.402817 16.0194 0.280766 16.0611 0.187506 16.1433C0.0942447 16.2254 0.0374054 16.3412 0.02948 16.4653C0.00994875 16.7753 0 17.0903 0 17.4062L6.25e-05 17.4193C6.25e-05 17.5436 0.0494485 17.6629 0.137356 17.7508C0.225264 17.8387 0.344492 17.8881 0.468813 17.8881C0.593133 17.8881 0.712361 17.8387 0.800269 17.7508C0.888177 17.6629 0.937563 17.5436 0.937563 17.4193ZM1.35498 12.4404C1.41187 12.464 1.47284 12.4761 1.53441 12.4761C1.59598 12.476 1.65694 12.4639 1.7138 12.4402C1.77066 12.4166 1.8223 12.382 1.86578 12.3384C1.90926 12.2948 1.94371 12.243 1.96716 12.1861C2.08063 11.9114 2.20465 11.637 2.33594 11.3703C2.39054 11.2588 2.39868 11.1302 2.35858 11.0127C2.31849 10.8951 2.23342 10.7983 2.12205 10.7435C2.01067 10.6886 1.88209 10.6802 1.76452 10.72C1.64694 10.7599 1.54997 10.8448 1.49488 10.956C1.35456 11.2411 1.22193 11.5344 1.10071 11.828C1.0772 11.8849 1.06513 11.9459 1.06518 12.0075C1.06523 12.0691 1.07741 12.13 1.10103 12.1869C1.12464 12.2438 1.15922 12.2954 1.2028 12.3389C1.24637 12.3824 1.29808 12.4169 1.35498 12.4404ZM0.643619 15.1213C0.704028 15.1332 0.766198 15.1332 0.826569 15.121C0.886941 15.1089 0.944327 15.085 0.995443 15.0506C1.04656 15.0163 1.0904 14.9722 1.12446 14.9209C1.15851 14.8696 1.18212 14.812 1.19391 14.7516C1.25104 14.4607 1.31867 14.1675 1.39496 13.8803C1.42688 13.7601 1.40975 13.6322 1.34735 13.5246C1.28495 13.4171 1.18239 13.3387 1.06223 13.3068C0.942069 13.2749 0.814153 13.292 0.706621 13.3544C0.599088 13.4168 0.520748 13.5194 0.488834 13.6396C0.407353 13.9465 0.335026 14.2599 0.273991 14.5709C0.25004 14.6929 0.275527 14.8194 0.344845 14.9227C0.414162 15.0259 0.521634 15.0973 0.643619 15.1213Z" fill="#2F80ED"/>
<g id="Group">
<g id="Group_2">
<path id="Vector_2" d="M18.4 19.888C18.4 18.192 16.5288 17.536 14.915 17.216V13.552C16.0996 13.68 17.0781 14.272 17.3013 14.992C17.37 15.184 17.5588 15.328 17.782 15.328C18.1253 15.328 18.3829 15.008 18.2799 14.704C17.9022 13.6 16.5631 12.736 14.8979 12.592V10.88C14.8979 10.608 14.6747 10.4 14.3829 10.4C14.091 10.4 13.8678 10.608 13.8678 10.88V12.576C11.9279 12.752 10.4 13.92 10.4 15.312C10.4 17.008 12.2713 17.664 13.885 17.984V21.648C12.7005 21.52 11.7219 20.928 11.4987 20.208C11.4301 20.016 11.2412 19.872 11.018 19.872C10.6747 19.872 10.4172 20.192 10.5202 20.496C10.8979 21.6 12.2369 22.464 13.9022 22.608V24.32C13.9022 24.592 14.1253 24.8 14.4172 24.8C14.709 24.8 14.9322 24.592 14.9322 24.32V22.624C16.8721 22.448 18.4 21.28 18.4 19.888ZM11.4301 15.312C11.4301 14.448 12.5116 13.696 13.885 13.536V16.992C11.7391 16.528 11.4301 15.856 11.4301 15.312ZM14.915 21.648V18.192C17.061 18.672 17.37 19.344 17.37 19.872C17.37 20.752 16.2884 21.504 14.915 21.648Z" fill="#2F80ED"/>
</g>
</g>
<path id="Vector_3" d="M24.5969 4.96729L23.8924 5.67204C23.8489 5.71566 23.7972 5.75027 23.7403 5.77389C23.6834 5.79752 23.6224 5.80969 23.5608 5.80972C23.4992 5.80975 23.4382 5.79764 23.3813 5.77407C23.3243 5.7505 23.2726 5.71594 23.2291 5.67237C23.1855 5.6288 23.151 5.57706 23.1274 5.52013C23.1039 5.46319 23.0918 5.40217 23.0918 5.34055C23.0918 5.27893 23.104 5.21793 23.1276 5.16102C23.1512 5.10411 23.1859 5.05242 23.2295 5.00889L24.7081 3.5298C24.7521 3.47778 24.8068 3.43598 24.8686 3.40731C24.9303 3.37863 24.9976 3.36378 25.0656 3.36378C25.1337 3.36378 25.201 3.37863 25.2627 3.40731C25.3245 3.43598 25.3792 3.47778 25.4232 3.5298L26.9019 5.00889C26.9896 5.09686 27.0389 5.21607 27.0388 5.34034C27.0388 5.46462 26.9894 5.58378 26.9015 5.67166C26.8137 5.75953 26.6946 5.80894 26.5703 5.80901C26.4461 5.80908 26.3269 5.75982 26.239 5.67204L25.5344 4.96727L25.5344 10.0412C25.5344 10.1655 25.485 10.2848 25.3971 10.3727C25.3092 10.4607 25.19 10.5101 25.0656 10.5101C24.9413 10.5101 24.8221 10.4607 24.7342 10.3727C24.6463 10.2848 24.5969 10.1655 24.5969 10.0412L24.5969 4.96729Z" fill="#2F80ED"/>
</g>
</svg>
