<svg width="22" height="24" viewBox="0 0 22 24" fill="none" xmlns="http://www.w3.org/2000/svg">
<path d="M21.0862 14.6689C20.7409 14.3254 20.4671 13.9169 20.2807 13.4669C20.0943 13.017 19.999 12.5345 20.0002 12.0475V8.99812C20.0002 6.61167 19.052 4.32296 17.3642 2.63549C15.6764 0.948013 13.3872 0 11.0002 0C8.61329 0 6.32411 0.948013 4.63628 2.63549C2.94845 4.32296 2.00024 6.61167 2.00024 8.99812V12.0475C2.00151 12.5345 1.90619 13.017 1.71978 13.4669C1.53337 13.9169 1.25958 14.3254 0.914241 14.6689C0.477713 15.1053 0.180428 15.6613 0.0599837 16.2667C-0.0604606 16.872 0.00134595 17.4994 0.237587 18.0696C0.473828 18.6398 0.873891 19.1272 1.38718 19.47C1.90047 19.8129 2.50393 19.9959 3.12124 19.9958H6.10024C6.32976 21.1259 6.94297 22.1418 7.83598 22.8716C8.729 23.6014 9.84689 24 11.0002 24C12.1536 24 13.2715 23.6014 14.1645 22.8716C15.0575 22.1418 15.6707 21.1259 15.9002 19.9958H18.8802C19.4975 19.9959 20.101 19.8129 20.6143 19.47C21.1276 19.1272 21.5277 18.6398 21.7639 18.0696C22.0001 17.4994 22.0619 16.872 21.9415 16.2667C21.8211 15.6613 21.5228 15.1053 21.0862 14.6689ZM11.0002 21.9954C10.382 21.9928 9.77961 21.7994 9.27554 21.4414C8.77147 21.0835 8.39032 20.5786 8.18424 19.9958H13.8162C13.6102 20.5786 13.229 21.0835 12.7249 21.4414C12.2209 21.7994 11.6185 21.9928 11.0002 21.9954ZM18.8792 17.9962H3.12124C2.89943 17.9964 2.68257 17.9307 2.4981 17.8076C2.31363 17.6844 2.16984 17.5093 2.08494 17.3045C2.00004 17.0996 1.97784 16.8741 2.02115 16.6566C2.06446 16.4391 2.17133 16.2394 2.32824 16.0826C2.85989 15.5539 3.2814 14.9251 3.5684 14.2325C3.85539 13.5398 4.00217 12.7972 4.00024 12.0475V8.99812C4.00024 7.14199 4.73774 5.36189 6.05049 4.04941C7.36325 2.73693 9.14373 1.99958 11.0002 1.99958C12.8568 1.99958 14.6372 2.73693 15.95 4.04941C17.2627 5.36189 18.0002 7.14199 18.0002 8.99812V12.0475C17.9983 12.7972 18.1451 13.5398 18.4321 14.2325C18.7191 14.9251 19.1406 15.5539 19.6722 16.0826C19.8292 16.2394 19.936 16.4391 19.9793 16.6566C20.0226 16.8741 20.0004 17.0996 19.9155 17.3045C19.8306 17.5093 19.6869 17.6844 19.5024 17.8076C19.3179 17.9307 19.101 17.9964 18.8792 17.9962Z" fill="#010101"/>
</svg>
