<svg width="16" height="16" viewBox="0 0 16 16" fill="none" xmlns="http://www.w3.org/2000/svg">
<circle cx="8" cy="8" r="8" fill="#2F80ED"/>
<path d="M5.2706 12V11.233L8.15128 8.07955C8.48935 7.71023 8.76776 7.3892 8.98651 7.11648C9.20526 6.84091 9.36719 6.58239 9.4723 6.34091C9.58026 6.09659 9.63423 5.84091 9.63423 5.57386C9.63423 5.26705 9.56037 5.00142 9.41264 4.77699C9.26776 4.55256 9.06889 4.37926 8.81605 4.2571C8.56321 4.13494 8.27912 4.07386 7.96378 4.07386C7.62855 4.07386 7.33594 4.14347 7.08594 4.28267C6.83878 4.41903 6.64702 4.6108 6.51065 4.85795C6.37713 5.10511 6.31037 5.39489 6.31037 5.72727H5.30469C5.30469 5.21591 5.42259 4.76705 5.65838 4.38068C5.89418 3.99432 6.2152 3.69318 6.62145 3.47727C7.03054 3.26136 7.48935 3.15341 7.99787 3.15341C8.50923 3.15341 8.96236 3.26136 9.35724 3.47727C9.75213 3.69318 10.0618 3.98437 10.2862 4.35085C10.5107 4.71733 10.6229 5.125 10.6229 5.57386C10.6229 5.89489 10.5646 6.20881 10.4482 6.51562C10.3345 6.8196 10.1357 7.15909 9.85156 7.53409C9.57031 7.90625 9.17969 8.3608 8.67969 8.89773L6.71946 10.9943V11.0625H10.7763V12H5.2706Z" fill="white"/>
</svg>
