<svg width="16" height="16" viewBox="0 0 16 16" fill="none" xmlns="http://www.w3.org/2000/svg">
<rect width="16" height="16" fill="white"/>
<path d="M8.00002 2C6.81333 2 5.65329 2.35189 4.66659 3.01119C3.67989 3.67048 2.91085 4.60755 2.45673 5.70391C2.0026 6.80027 1.88378 8.00667 2.11529 9.17056C2.3468 10.3345 2.91825 11.4036 3.75737 12.2427C4.59648 13.0818 5.66559 13.6532 6.82947 13.8847C7.99336 14.1163 9.19977 13.9974 10.2961 13.5433C11.3925 13.0892 12.3296 12.3201 12.9889 11.3334C13.6481 10.3468 14 9.18671 14 8.00002C14 7.21208 13.8448 6.43187 13.5433 5.70391C13.2418 4.97595 12.7998 4.31452 12.2427 3.75736C11.6855 3.20021 11.0241 2.75825 10.2961 2.45672C9.56817 2.1552 8.78795 2 8.00002 2ZM8.60002 10.4C8.60002 10.5592 8.53681 10.7118 8.42428 10.8243C8.31176 10.9368 8.15915 11 8.00002 11C7.84089 11 7.68828 10.9368 7.57575 10.8243C7.46323 10.7118 7.40002 10.5592 7.40002 10.4V7.40002C7.40002 7.24088 7.46323 7.08827 7.57575 6.97575C7.68828 6.86323 7.84089 6.80001 8.00002 6.80001C8.15915 6.80001 8.31176 6.86323 8.42428 6.97575C8.53681 7.08827 8.60002 7.24088 8.60002 7.40002V10.4ZM8.00002 6.20001C7.88135 6.20001 7.76535 6.16482 7.66668 6.09889C7.56801 6.03296 7.4911 5.93926 7.44569 5.82962C7.40028 5.71999 7.3884 5.59934 7.41155 5.48296C7.4347 5.36657 7.49184 5.25966 7.57575 5.17575C7.65967 5.09183 7.76658 5.03469 7.88297 5.01154C7.99935 4.98839 8.11999 5.00027 8.22963 5.04568C8.33927 5.09109 8.43297 5.168 8.4989 5.26667C8.56483 5.36534 8.60002 5.48134 8.60002 5.60001C8.60002 5.75914 8.53681 5.91175 8.42428 6.02428C8.31176 6.1368 8.15915 6.20001 8.00002 6.20001Z" fill="#BDC7D1"/>
</svg>
