<svg width="26" height="26" viewBox="0 0 26 26" fill="none" xmlns="http://www.w3.org/2000/svg">
<rect width="26" height="26" rx="13" fill="#010101" fill-opacity="0.75"/>
<path d="M9.71023 8.27273H11.0227V14.4602C11.0227 15.0199 10.9119 15.4986 10.6903 15.8963C10.4716 16.294 10.1634 16.598 9.76562 16.8082C9.3679 17.0156 8.90199 17.1193 8.3679 17.1193C7.87642 17.1193 7.43466 17.0298 7.04261 16.8509C6.65341 16.6719 6.34517 16.4119 6.1179 16.071C5.89347 15.7273 5.78125 15.3097 5.78125 14.8182H7.08949C7.08949 15.0597 7.14489 15.2685 7.25568 15.4446C7.36932 15.6207 7.52415 15.7585 7.72017 15.858C7.91903 15.9545 8.14631 16.0028 8.40199 16.0028C8.6804 16.0028 8.91619 15.9446 9.10938 15.8281C9.3054 15.7088 9.45455 15.5341 9.55682 15.304C9.65909 15.0739 9.71023 14.7926 9.71023 14.4602V8.27273ZM15.7646 17H12.9393V8.27273H15.854C16.7092 8.27273 17.4435 8.44744 18.0572 8.79688C18.6708 9.14347 19.141 9.64205 19.4677 10.2926C19.7972 10.9403 19.962 11.7173 19.962 12.6236C19.962 13.5327 19.7958 14.3139 19.4634 14.9673C19.1339 15.6207 18.6566 16.1236 18.0316 16.4759C17.4066 16.8253 16.6509 17 15.7646 17ZM14.256 15.8494H15.6921C16.3569 15.8494 16.9094 15.7244 17.3498 15.4744C17.7901 15.2216 18.1197 14.8565 18.3384 14.3793C18.5572 13.8991 18.6665 13.3139 18.6665 12.6236C18.6665 11.9389 18.5572 11.358 18.3384 10.8807C18.1225 10.4034 17.8001 10.0412 17.3711 9.79403C16.9421 9.54687 16.4094 9.4233 15.7731 9.4233H14.256V15.8494Z" fill="white"/>
</svg>
